<svg xmlns="http://www.w3.org/2000/svg" width="20" height="22" viewBox="0 0 20 22">
    <path fill="#480A35" d="M14 0c.513 0 .936.386.993.883L15 1v1h2c1.598 0 2.904 1.249 2.995 2.824L20 5v14c0 1.598-1.249 2.904-2.824 2.995L17 22H3C1.402 22 .096 20.751.005 19.176L0 19V5c0-1.598 1.249-2.904 2.824-2.995L3 2h2V1c0-.552.448-1 1-1 .513 0 .936.386.993.883L7 1v1h6V1c0-.552.448-1 1-1zm4 10H2v9c0 .513.386.936.883.993L3 20h14c.513 0 .936-.386.993-.883L18 19v-9zm-8 1c.552 0 1 .448 1 1v2h2c.552 0 1 .448 1 1s-.448 1-1 1h-2v2c0 .552-.448 1-1 1s-1-.448-1-1v-2H7c-.552 0-1-.448-1-1s.448-1 1-1h2v-2c0-.552.448-1 1-1zM5 4H3c-.513 0-.936.386-.993.883L2 5v3h16V5c0-.513-.386-.936-.883-.993L17 4h-2v1c0 .552-.448 1-1 1-.513 0-.936-.386-.993-.883L13 5V4H7v1c0 .552-.448 1-1 1-.513 0-.936-.386-.993-.883L5 5V4z"/>
</svg>
