<svg xmlns="http://www.w3.org/2000/svg" width="18" height="22" viewBox="0 0 18 22">
    <path fill="#FFF" d="M17 10c.513 0 .936.386.993.883L18 11v8c0 1.598-1.249 2.904-2.824 2.995L15 22H3C1.402 22 .096 20.751.005 19.176L0 19v-8c0-.552.448-1 1-1 .513 0 .936.386.993.883L2 11v8c0 .513.386.936.883.993L3 20h12c.513 0 .936-.386.993-.883L16 19v-8c0-.552.448-1 1-1zM9 0h.02c.023 0 .046.002.07.004L9 0c.05 0 .1.004.149.011l.052.01c.022.004.043.009.065.015l.046.014.06.021.051.023.061.03.037.022c.025.016.05.032.074.05l.018.014c.007.005.01.007.012.01l.082.073 4 4c.39.39.39 1.024 0 1.414-.36.36-.928.388-1.32.083l-.094-.083L10 3.414V14c0 .552-.448 1-1 1-.513 0-.936-.386-.993-.883L8 14V3.414L5.707 5.707c-.36.36-.928.388-1.32.083l-.094-.083c-.36-.36-.388-.928-.083-1.32l.083-.094 4-4L8.375.22l.008-.007-.09.08c.035-.036.073-.068.112-.097.024-.018.049-.034.074-.05l.037-.021c.02-.011.04-.022.06-.031L8.63.07l.06-.021.045-.014.065-.016.053-.009.058-.007L8.982 0H9z"/>
</svg>
