<svg xmlns="http://www.w3.org/2000/svg" width="74" height="30" viewBox="0 0 74 30">
    <g fill="#480A35" fill-rule="evenodd">
        <path d="M50.125 19.177c-.746.09-1.493.161-2.24.212-.481.053-.95.136-1.409.251-.456.115-.86.29-1.208.522-.35.231-.633.547-.85.945-.216.4-.324.907-.324 1.526 0 .745.282 1.305.848 1.678.566.374 1.222.56 1.968.56.795 0 1.463-.135 2.005-.405.542-.27 1-.617 1.373-1.042.373-.425.668-.908.884-1.448.216-.54.398-1.081.542-1.622l.505-1.93c-.649.412-1.348.664-2.094.753m-7.657-8.222c.553-.836 1.228-1.512 2.022-2.027.795-.514 1.686-.881 2.673-1.1.987-.219 2.01-.328 3.07-.328.843 0 1.722.064 2.637.193s1.757.38 2.528.752c.77.374 1.402.902 1.897 1.584.493.681.727 1.589.703 2.72 0 .954-.132 2.073-.396 3.36l-1.662 8.029c-.096.36-.163.803-.199 1.331-.036.529-.053.985-.053 1.371 0 .334.059.721.18 1.158h-5.129V26.03c-.7.848-1.552 1.473-2.563 1.872-1.013.398-2.06.598-3.143.598-1.012 0-1.897-.142-2.655-.426-.759-.282-1.39-.66-1.897-1.137-.505-.476-.879-1.03-1.119-1.661-.24-.63-.362-1.292-.362-1.987 0-1.931.62-3.474 1.86-4.633 1.241-1.159 2.992-1.878 5.256-2.162 1.203-.155 2.251-.27 3.142-.348.891-.076 1.631-.198 2.221-.366.591-.166 1.03-.41 1.319-.733.288-.322.433-.805.433-1.448 0-.515-.109-.926-.325-1.235-.217-.31-.488-.553-.812-.734-.326-.18-.674-.302-1.049-.366-.372-.065-.727-.097-1.064-.097-.916 0-1.733.238-2.456.714-.723.477-1.169 1.217-1.337 2.22h-4.804c.168-1.26.53-2.31 1.084-3.146M67 .5L61.294 27.5 56 27.5 61.669.5z" transform="translate(0 -.5)"/>
        <path d="M69.2 6.5L70.253 8.971 0 27.827 0 29.5 70.577 10.195 70.888 12.865 74 8.601z" transform="translate(0 -.5)"/>
        <path d="M1.252 29.2L1.252 7.5 0 7.5 0 30.5 69 30.5 69 29.201z" transform="translate(0 -.5)"/>
        <path d="M3.173 11.674l.694-3.562h2.945c.23-1.25.485-2.343.762-3.28.278-.939.659-1.732 1.144-2.382.485-.65 1.126-1.138 1.923-1.463C11.438.663 12.483.5 13.777.5c.532 0 1.068.024 1.612.075.542.05 1.079.125 1.611.224l-.763 3.826c-.255-.025-.52-.05-.796-.075-.278-.025-.544-.038-.798-.038-.623 0-1.097.081-1.42.244-.324.162-.572.4-.746.713-.173.313-.306.687-.398 1.124-.092.438-.207.944-.347 1.519h3.5l-.693 3.562h-3.533L7.92 27.5H3l3.084-15.826h-2.91zM17.677 4.924L18.65.5H24l-.973 4.424h-5.35zm4.752 3.025L18.313 27.5H13l4.079-19.55h5.35zM27.663 8.027l-.57 2.712h.07c1.64-2.16 3.79-3.239 6.453-3.239C37.205 7.5 39 9.245 39 12.735c0 .201-.025.459-.072.773-.048.314-.101.633-.16.96-.06.327-.12.634-.178.922-.06.29-.101.523-.126.698L36.183 27.5h-5.062l2.245-11.412c.048-.303.113-.703.197-1.206.083-.503.124-.891.124-1.168 0-.577-.255-1.054-.766-1.43-.511-.377-1.064-.566-1.658-.566-.76 0-1.432.157-2.014.47-.582.315-1.082.723-1.497 1.225-.416.503-.76 1.08-1.034 1.732-.273.653-.481 1.319-.624 1.997L24.026 27.5H19l3.814-19.473h4.849z" transform="translate(0 -.5)"/>
    </g>
</svg>
