<svg xmlns="http://www.w3.org/2000/svg" width="21" height="20" viewBox="0 0 21 20">
    <g fill="none" fill-rule="evenodd">
        <path d="M0 0H20V20H0z" transform="translate(.556)"/>
        <path fill="#2C3C3B" fill-opacity=".5" d="M11.633 1.904c-4.401 0-7.979 3.526-8.088 7.916H1.112l3.642 4.06 3.642-4.06H5.569c.107-3.269 2.78-5.886 6.064-5.886 3.353 0 6.07 2.726 6.07 6.089 0 3.363-2.718 6.089-6.07 6.089-1.344 0-2.586-.439-3.592-1.181L6.649 16.42c1.374 1.079 3.104 1.722 4.983 1.722 4.47 0 8.094-3.635 8.094-8.119.001-4.484-3.623-8.119-8.093-8.119z" transform="translate(.556)"/>
    </g>
</svg>
