<svg xmlns="http://www.w3.org/2000/svg" width="105" height="50" viewBox="0 0 105 50">
    <path fill="#480A35" fill-rule="evenodd" d="M89.264 32c1.314 0 2.426.527 3.334 1.58.935 1.065 1.402 2.346 1.402 3.843 0 1.51-.467 2.791-1.402 3.844-.908 1.052-2.02 1.579-3.334 1.579-.73 0-1.399-.16-2.001-.48-.604-.317-1.068-.74-1.393-1.267h-.081l.08 1.413V47H84V32.332h1.789v1.412h.08c.326-.525.79-.947 1.394-1.267.602-.318 1.27-.477 2.001-.477zm-65.61 0c.527 0 .977.087 1.346.262l-.554 1.942c-.225-.101-.582-.152-1.07-.152-.686 0-1.283.305-1.791.916-.51.611-.763 1.325-.763 2.14V43H19V32.306h1.743v1.746h.079c.185-.568.564-1.05 1.138-1.452.574-.4 1.139-.6 1.693-.6zM99.6 32c.957 0 1.823.218 2.597.653.774.436 1.317 1.018 1.625 1.75l-1.812.716c-.207-.435-.542-.776-1.007-1.023-.464-.244-.984-.368-1.558-.368-.531 0-1.007.126-1.427.38-.42.252-.63.56-.63.927 0 .59.583 1.01 1.746 1.264l1.637.4c2.152.506 3.229 1.539 3.229 3.098 0 .899-.413 1.658-1.238 2.276-.826.617-1.866.927-3.118.927-1.091 0-2.05-.271-2.875-.812-.826-.54-1.415-1.253-1.769-2.138l1.812-.738c.267.619.653 1.1 1.162 1.444.508.344 1.065.516 1.67.516.649 0 1.19-.133 1.625-.4.434-.267.652-.583.652-.949 0-.66-.53-1.144-1.592-1.454l-1.857-.442c-2.109-.506-3.162-1.475-3.162-2.908 0-.941.4-1.697 1.204-2.265.804-.569 1.832-.854 3.086-.854zm-24.692 0v6.565c.041 1.74.877 2.609 2.509 2.609.76 0 1.396-.322 1.907-.968.512-.645.768-1.416.768-2.315V32H82v10.652h-1.825v-1.478h-.083c-.29.522-.736.956-1.338 1.304-.601.348-1.227.522-1.877.522-1.244 0-2.2-.372-2.872-1.12-.67-.746-1.005-1.807-1.005-3.184V32h1.908zm-5.716-3v3.241h2.552v1.815h-2.552v5.272c0 .705.134 1.184.404 1.436.269.253.573.378.914.378.156 0 .309-.018.458-.054.149-.035.287-.082.415-.14L72 42.718c-.51.187-1.107.281-1.787.281-.852 0-1.558-.266-2.118-.8-.56-.532-.847-1.274-.862-2.225v-5.92h-1.829v-1.814h1.83V29h1.958zM34.02 27c1.116 0 2.081.3 2.898.898.816.585 1.36 1.32 1.632 2.204l-1.755.77c-.163-.57-.486-1.045-.969-1.422-.483-.378-1.071-.567-1.765-.567-.735 0-1.354.212-1.857.638-.504.398-.755.916-.755 1.555 0 .526.197.98.591 1.364.435.383 1.381.837 2.837 1.362 1.483.53 2.541 1.176 3.174 1.941.632.765.948 1.705.948 2.819 0 1.344-.47 2.423-1.408 3.237C36.64 42.6 35.483 43 34.123 43c-1.211 0-2.278-.37-3.204-1.112-.925-.741-1.564-1.754-1.919-3.037l1.797-.77c.122.457.292.87.51 1.24.217.37.472.689.765.952.292.264.615.47.97.62.353.15.727.225 1.122.225.857 0 1.558-.232 2.102-.695.543-.463.816-1.08.816-1.85 0-.642-.225-1.191-.674-1.648-.421-.44-1.21-.868-2.367-1.283-1.17-.442-1.898-.742-2.183-.898-1.551-.827-2.327-2.047-2.327-3.658 0-1.127.429-2.09 1.286-2.888.87-.798 1.939-1.198 3.204-1.198zm17.416 5c1.411 0 2.524.383 3.339 1.148.816.766 1.224 1.817 1.224 3.15v6.365h-1.826V41.23h-.082c-.788 1.18-1.838 1.77-3.151 1.77-1.121 0-2.058-.337-2.81-1.012C47.377 41.315 47 40.472 47 39.46c0-1.068.398-1.918 1.193-2.55.795-.632 1.855-.948 3.183-.948 1.133 0 2.066.21 2.798.632v-.443c0-.674-.262-1.247-.788-1.717-.525-.47-1.14-.706-1.844-.706-1.065 0-1.909.456-2.53 1.37l-1.68-1.074C48.26 32.674 49.628 32 51.438 32zm-7.992-3v3.24h2.322v1.816h-2.322v5.272c0 .705.123 1.184.367 1.436.245.253.523.378.833.378.142 0 .28-.018.415-.054.136-.035.262-.082.379-.14L46 42.718c-.465.187-1.007.281-1.626.281-.775 0-1.416-.266-1.926-.8-.51-.532-.771-1.274-.784-2.225v-5.92H40v-1.814h1.664V29h1.78zM12.5 32c1.586 0 2.894.52 3.928 1.56C17.476 34.6 18 35.912 18 37.5c0 1.602-.524 2.915-1.572 3.94C15.394 42.48 14.086 43 12.5 43c-1.587 0-2.904-.52-3.95-1.56C7.516 40.4 7 39.088 7 37.5c0-1.587.516-2.9 1.55-3.94C9.596 32.52 10.913 32 12.5 32zm51.053-.062l.404.044v2.074l-.872-.087c-.908 0-1.657.284-2.245.853-.59.569-.883 1.293-.883 2.171v5.834H58V32.241h1.871v1.728h.086c.581-1.354 1.78-2.03 3.596-2.03zM5.311 27c.687 0 1.25.118 1.689.353l-.515 1.677c-.33-.165-.7-.247-1.112-.247-.466 0-.848.162-1.142.486-.296.324-.442.756-.442 1.295v1.285h2.634v1.74H3.789V42H1.895v-8.412H0V31.85h1.895v-1.472c0-1.008.318-1.822.957-2.445.638-.62 1.458-.932 2.46-.932zm46.376 10.521c-.775 0-1.42.19-1.94.57-.517.378-.776.85-.776 1.41 0 .507.21.928.632 1.265.422.337.916.507 1.483.507.8 0 1.516-.302 2.146-.907.629-.604.942-1.313.942-2.128-.594-.478-1.423-.717-2.487-.717zM12.5 33.771c-.975 0-1.805.35-2.488 1.053-.67.688-1.005 1.58-1.005 2.676 0 1.11.335 2.008 1.005 2.696.669.69 1.498 1.033 2.488 1.033.989 0 1.818-.344 2.488-1.033.67-.688 1.003-1.586 1.003-2.696 0-1.096-.334-1.988-1.003-2.676-.684-.703-1.513-1.054-2.488-1.054zm76.46-.027c-.908 0-1.667.347-2.277 1.04-.597.692-.894 1.572-.894 2.639 0 1.08.297 1.965.894 2.658.61.68 1.369 1.018 2.276 1.018.895 0 1.647-.346 2.256-1.038.61-.678.915-1.559.915-2.638 0-1.067-.305-1.947-.915-2.639-.61-.693-1.361-1.04-2.256-1.04zM47.5 9c1.37 0 2.456.585 3.022 1.234h.087v-.9H53v9.915C53 23.327 50.5 25 47.543 25c-2.782 0-4.455-1.798-5.087-3.263l2.196-.878c.392.899 1.348 1.966 2.891 1.966 1.892 0 3.066-1.13 3.066-3.242v-.795h-.087c-.566.67-1.652 1.256-3.022 1.256-2.87 0-5.5-2.406-5.5-5.502C42 11.426 44.63 9 47.5 9zM8.85 3c2.661 0 4.554 1.016 5.98 2.342l-1.681 1.639c-1.022-.933-2.404-1.659-4.298-1.659-3.511 0-6.257 2.758-6.257 6.178 0 3.421 2.746 6.179 6.257 6.179 2.276 0 3.574-.893 4.404-1.7.68-.665 1.128-1.618 1.298-2.924H8.85v-2.322h8.02c.087.414.129.913.129 1.452 0 1.74-.49 3.897-2.063 5.431C13.404 19.171 11.447 20 8.85 20 4.042 20 0 16.185 0 11.5 0 6.815 4.042 3 8.85 3zM23.5 9c3.03 0 5.5 2.313 5.5 5.5 0 3.167-2.47 5.5-5.5 5.5S18 17.667 18 14.5c0-3.187 2.47-5.5 5.5-5.5zm12 0c3.03 0 5.5 2.313 5.5 5.5 0 3.167-2.47 5.5-5.5 5.5S30 17.667 30 14.5c0-3.187 2.47-5.5 5.5-5.5zM57 4v16h-2V4h2zm7.076 5c2.835 0 4.221 2.27 4.676 3.5l.248.625-7.304 3.041c.559 1.105 1.427 1.667 2.648 1.667 1.222 0 2.07-.603 2.69-1.52l1.862 1.25C68.297 18.458 66.85 20 64.344 20 61.242 20 59 17.583 59 14.5c0-3.27 2.261-5.5 5.076-5.5zm-16.358 2.175c-1.739 0-3.197 1.422-3.197 3.367 0 1.925 1.458 3.326 3.197 3.326 1.717 0 3.065-1.401 3.065-3.326 0-1.945-1.348-3.367-3.065-3.367zM23.5 11.167c-1.66 0-3.093 1.354-3.093 3.333 0 1.959 1.432 3.334 3.093 3.334 1.66 0 3.092-1.375 3.092-3.334 0-1.98-1.432-3.333-3.092-3.333zm12 0c-1.66 0-3.093 1.354-3.093 3.333 0 1.959 1.432 3.334 3.093 3.334 1.66 0 3.092-1.375 3.092-3.334 0-1.98-1.431-3.333-3.092-3.333zm28.658-.042c-1.22 0-2.916 1.083-2.856 3.208l4.884-2.041c-.27-.688-1.075-1.167-2.028-1.167z"/>
</svg>
