<svg xmlns="http://www.w3.org/2000/svg" xmlns:xlink="http://www.w3.org/1999/xlink" width="58" height="57" viewBox="0 0 58 57">
    <defs>
        <path id="prefix__a" d="M22.596 45.747l.097.023.087.018.08.015.08.012.08.008.084.004h.094l.109-.005.081-.005.09-.006.098-.01.108-.01.121-.01.134-.014.152-.01.152.002.152.013.112.02c.074.017.144.043.211.076l.098.056.093.067c.06.05.115.11.165.18l.07.113.051.101c.047.108.082.234.106.38l.02.15.256 2.48-.63.065-.249-2.413-.013-.112c-.01-.071-.023-.135-.038-.192l-.024-.079-.038-.092c-.02-.037-.042-.07-.066-.1l-.039-.038-.068-.049c-.033-.018-.068-.033-.107-.043l-.061-.014-.105-.01c-.05-.002-.104-.002-.163.002l-.09.008-.375.037-.135.012-.126.01-.124.004-.124-.003-.128-.012-.133-.02-.145-.029-.156-.039.156-.541zm4.803-.562l.825 3.715-.612.14-.704-3.172-.723.165-.121-.543 1.335-.305zm2.693-.77l.106.005.103.017.101.028.106.042c.069.034.136.078.2.133l.096.09.073.085c.071.092.135.205.194.34l.056.14.671 1.856.628-.228.188.522-3.215 1.173-.189-.52 1.994-.73-.64-1.772-.054-.138c-.024-.057-.049-.108-.073-.154l-.037-.064-.06-.08c-.028-.032-.057-.06-.088-.08l-.047-.03-.077-.03c-.037-.01-.075-.016-.116-.017l-.063.004-.103.015c-.049.01-.1.023-.157.041l-.087.03-.122.044-.128.046-.12.04-.118.033-.12.026-.126.02-.13.013-.095.005-.101.002h-.108v-.138l.003-.144.003-.146.001-.137.1-.001.09-.002.08-.003.11-.01.11-.019.075-.017.081-.023.087-.028.1-.034c.047-.017.1-.035.157-.057l.09-.033.145-.046c.097-.028.196-.048.296-.062.044-.005.087-.007.13-.007zm-12.297.56l.102.113c.293.352.458.822.428 1.352l-.018.179-.031.177c-.112.511-.393.915-.764 1.173l-.143.09-.086-.12.122-.137c.269-.315.425-.604.51-1.039l.032-.195.021-.197c.036-.441-.036-.762-.209-1.14l-.08-.165.116-.09zm2.354.911l1.455.024-.02 1.304-.004.118-.007.105-.008.098-.012.095-.016.098-.024.099-.017.07-.02.077-.021.085-.61-.128.027-.102.023-.088.018-.079.014-.075.01-.073.008-.077.006-.085.003-.1.013-.803-.827-.014.01-.549zm-4.481-.771l.039.069.033.064.029.062.024.06.02.063.018.064.015.065.012.073.157 1.132.092-.048.085-.057.08-.063.074-.07.07-.078.064-.085.06-.089.056-.096.051-.103.07-.164.064-.18-.299-.155.138-.274.524.27-.043.278-.064.173c-.046.11-.096.213-.151.308l-.087.135-.094.126c-.066.079-.138.15-.215.216l-.12.091-.128.082c-.088.05-.183.095-.284.133l-.156.052-.165.043c-.113.026-.232.046-.36.06l-.194.017-.03-.32.157-.014.165-.017.17-.026.171-.038-.154-.953-.015-.08-.013-.071-.012-.064-.02-.084-.02-.073-.024-.07-.025-.06-.027-.06-.033-.063.295-.181zm-3.405-1.05l.041.033.038.03.036.026.036.024.037.023.087.043.053.023.064.026.074.028.084.031.1.036.114.048.108.061.066.05.057.056.048.065.036.074.025.083.013.094v.076c-.005.053-.015.11-.033.173l-.032.096-.468 1.253-.322-.116.455-1.22.025-.075.018-.067.012-.06.002-.053-.005-.048-.013-.042-.022-.04-.03-.035-.04-.033-.047-.028-.059-.027-.068-.026-.191-.07-.069-.026-.064-.026-.061-.026-.06-.03-.06-.036-.06-.04-.064-.048-.067-.056.206-.224zm-.186-.632l.05.14-.15.1c-.33.23-.549.468-.742.866l-.08.18-.072.185c-.147.417-.165.748-.103 1.163l.031.184-.13.056-.071-.152c-.193-.468-.207-1.03.024-1.585.258-.62.723-1.006 1.243-1.137zm2.9 1.262l.216.068-.274.449-.001.358-.074.024c-.044.011-.08.014-.115.01l-.049-.011-.068-.029c-.16-.09-.142-.288-.026-.442.084-.11.284-.317.39-.427zm21.655-3.994l.21.437.224.738.042.174c.014.077.023.152.026.227l.002.111-.01.161-.019.15-.028.138.125.013.127.01.127.011.126.012.34.028.243.352.046.073.039.07.03.068.029.072.023.08.023.086.013.062.014.07.015.076-2.322 1.616-.311-.454 1.979-1.376-.011-.043-.014-.038-.02-.037-.026-.042-.017-.024-.022-.032-.027-.037-.031-.037-.242.001H36.9l-.193-.001-.178-.002-.318-.007-.14-.006-.17-.007-.195-.011-.085-.006-.116-.012-.103-.012-.09-.013-.08-.014-.071-.015-.062-.017-.083-.028-.077-.027-.075-.033-.08-.035-.057-.03-.065-.037-.071-.045-.08-.054-.09-.065-.101-.077-.083-.066c-.058-.048-.121-.1-.19-.16l-.109-.092.389-.473.126.115c.054.05.106.094.156.135l.073.058.105.078.102.068.098.06.095.049.094.043.094.035.14.041.15.031.157.023.168.015.121.006.13.006.14.006.234.012.018-.075.016-.084.014-.093.01-.1v-.107l-.008-.116-.02-.122-.032-.13-.188-.603-.464.186-.183-.478.242-.109.238-.107.48-.214zM14.28 44.484l.216.066-.274.45v.36l-.074.024c-.044.012-.081.014-.115.01l-.05-.011-.068-.029c-.16-.091-.141-.289-.026-.441.085-.114.285-.317.39-.429zm18.847-1.61l.594 1.137.053.103.044.094.039.089.035.088.03.092.028.097.018.068.02.077.02.082-.594.174-.023-.1-.022-.087-.02-.078-.023-.071-.026-.068-.029-.07-.035-.076-.044-.087-.367-.701-.726.372-.25-.48 1.278-.655zM21.187.2c1.994 0 3.968.278 5.866.828.086.025.155.089.185.173.03.085.02.178-.03.253-1.104 1.653-2.832 2.782-4.768 3.122v9.747c.84.147 1.636.438 2.374.87l6.23-7.467c-1.265-1.513-1.866-3.493-1.655-5.474.01-.089.06-.168.137-.213.078-.045.172-.05.253-.013 3.644 1.627 6.752 4.251 8.987 7.585.05.075.061.169.03.252-.03.085-.099.15-.184.174-.657.19-1.336.287-2.021.287-1.278 0-2.525-.337-3.625-.977l-6.23 7.467c.549.657.974 1.395 1.264 2.199l9.545-1.692c-.003-1.976.802-3.883 2.23-5.263.065-.062.154-.09.242-.074s.162.072.202.152c1.428 2.93 2.152 6.08 2.152 9.366 0 .752-.039 1.51-.117 2.253-.01.089-.06.168-.137.213-.078.045-.172.05-.254.014-1.81-.806-3.212-2.32-3.882-4.177l-9.547 1.692v.005c0 .866-.15 1.712-.444 2.517l8.368 4.857c1.269-1.525 3.116-2.467 5.107-2.593.089-.006.174.032.23.1.058.069.079.162.058.247-.959 3.899-2.997 7.437-5.893 10.237-.065.06-.154.09-.242.073-.088-.015-.162-.071-.202-.152-.879-1.792-.99-3.865-.313-5.728l-8.375-4.862c-1.103 1.316-2.61 2.189-4.288 2.482v9.708h10.814c.12 0 .229.08.265.197.037.115-.004.242-.104.312-3.588 2.555-7.818 3.907-12.229 3.907-4.412 0-8.641-1.352-12.23-3.907-.099-.07-.14-.197-.104-.312.036-.117.144-.197.266-.197h10.814V28.68c-1.686-.295-3.198-1.173-4.301-2.498l-8.397 4.875c.675 1.854.569 3.92-.302 5.707-.04.08-.114.138-.202.153-.087.016-.178-.01-.242-.074-2.884-2.795-4.914-6.327-5.87-10.214-.02-.087 0-.178.057-.247.058-.069.144-.106.233-.1 1.976.134 3.812 1.075 5.072 2.59l8.395-4.874c-.29-.798-.436-1.636-.436-2.496v-.005L4.39 19.805c-.669 1.856-2.072 3.371-3.882 4.177-.082.037-.176.031-.252-.014-.078-.045-.129-.124-.138-.213C.04 23.011 0 22.254 0 21.502c0-3.286.724-6.437 2.152-9.366.039-.08.114-.136.202-.152.088-.016.177.012.241.074 1.428 1.38 2.233 3.287 2.23 5.263l9.546 1.692c.29-.804.714-1.542 1.264-2.199L9.405 9.347c-1.099.64-2.347.977-3.625.977-.683 0-1.364-.096-2.02-.287-.085-.024-.155-.09-.185-.174-.03-.083-.019-.177.031-.252 2.235-3.334 5.343-5.958 8.986-7.585.082-.036.175-.032.253.013.077.045.128.124.138.213.21 1.98-.39 3.96-1.656 5.474l6.23 7.466c.738-.43 1.535-.722 2.375-.869V4.576c-1.937-.34-3.665-1.469-4.768-3.122-.05-.075-.061-.168-.03-.253.03-.084.099-.148.184-.173C17.217.478 19.191.2 21.186.2zM41.14 36.286l.408.324.177.21c.17.211.313.423.43.636l.11.213.093.216c.085.217.145.438.18.662l.028.226.012.23c.004.232-.015.47-.057.712l-.05.245-.066.248c-.073.252-.168.513-.286.782l-.125.272-.542-.24.122-.273.124-.29.08-.201.073-.208.064-.214-1.689-.609-.14-.049-.128-.043-.113-.036-.105-.031-.098-.026-.092-.02-.13-.023-.123-.014-.124-.008-.131-.004-.017-.652.146-.003.134.003.127.008.121.014.12.023.117.028.122.036.13.044 1.977.767.005-.196c-.001-.086-.008-.172-.02-.257l-.02-.126-.046-.187-.06-.185-.076-.183-.088-.181-.104-.179-.117-.178-.132-.178-.145-.178-.157-.178-.528.353-.314-.473.923-.629zm1.82-3.293l.472.292-.392.62 2.745 1.709-.338.533-2.743-1.707-.474.749-.072.113-.072.105-.072.1-.078.093-.086.091-.096.09-.072.063-.078.062-.086.065-.083-.117-.083-.11-.083-.111-.084-.118.078-.062.07-.056.06-.05.081-.077.08-.086.053-.069.056-.078.06-.087.049-.075c.034-.053.074-.113.117-.182l1.071-1.7zm.942-1.891l1.213.545.109.05.097.047.088.048.086.051.083.053.083.061.06.044.064.049.07.053-.374.505-.084-.066-.074-.056-.066-.05-.064-.043-.065-.04-.068-.037-.077-.04-.092-.043-.75-.336-.354.746-.512-.23.627-1.311zm1.202-3.504l.077.005.068.004.06.004.079.009.068.011.06.013.057.015.055.016.061.019.749.24.16.059c.155.064.299.147.43.248l.127.108.15.15c.099.107.193.226.282.357l.131.206.161.277.163.276.162.277.159.28-.13.075-.126.074-.126.074-.13.076-.616-1.049-.08-.131-.084-.132-.094-.13-.107-.122-.079-.075-.087-.072-.095-.067-.104-.061-.114-.054-.125-.046-.802-.259-.685 2.102-1.504-.484.195-.595.979.315.655-2.013zm.89-6.166l.569.038.566.188.182.067.174.078.166.085.153.091.14.098.127.102.076.069.067.07.058.07.002-.004.045.06.269-.196.27-.202.27-.203.267-.2.362.472-2.44 1.79.067.041.079.041.06.028.069.027.076.025.086.027.095.024.105.022.115.021.126.019.139.016.178.018.181.017.175.016.166.014.461.043-.043.63-.214-.017-.422-.04-.213-.021-.068-.006-.069-.008-.068-.007-.067-.005-.202-.024-.206-.036-.205-.05-.2-.06-.13-.05-.125-.056-.121-.063-.116-.07-.108-.078-.1-.087-.077.047-.07.04-.063.034-.087.043-.078.035-.072.028-.07.022-.067.021-.072.02-.35.1-.167-.592.188-.053.176-.05.17-.06.113-.047.118-.057.126-.068.134-.077.144-.09.155-.104.125-.086c.087-.061.18-.13.282-.204l.157-.117.315-.239-.058-.083-.037-.045-.045-.043-.052-.042-.093-.061-.105-.06-.117-.059-.129-.055-.137-.053-.142-.052-.546-.188-.133.491-.498-.145.237-.975zm3.331-3.013l.1.001.116.004.146 2.13-.552.037-.106-1.54-.142.015-.135.026-.128.036-.187.064-.185.071-.165.061-.176.058-.188.055-.154.036c-.107.022-.221.04-.344.052l-.19.017-.656.044.054.778-.553.038-.095-1.407 1.18-.078.15-.015.154-.023.156-.032.234-.06.23-.076.215-.077.225-.075.155-.043.153-.035.153-.027.08-.011.066-.006.065-.005.07-.005.094-.004.103-.004h.057zm-3.698-3.784l.148.725 3.159-.652.126.624-3.158.653.178.877.025.133.022.127.015.123.01.123v.127l-.006.133-.01.094-.013.1-.017.106-.14-.027-.137-.023-.136-.024-.142-.027.014-.101.011-.09.009-.077.006-.112-.005-.12-.007-.086-.013-.096-.018-.106-.016-.088-.042-.214-.025-.126-.377-1.864.54-.112zm.89-4.484l.037.001.15.015c.1.015.195.038.287.07l.135.056.128.07c.083.049.16.107.232.173l.104.105.096.116c.06.08.113.166.157.258l.062.142.049.149c.028.1.046.199.055.298l.005.15-.008.146c-.01.096-.031.19-.06.28l-.053.132-.064.128c-.047.083-.103.162-.168.236l-.105.109-.116.1c-.082.062-.172.116-.271.164l-.155.065-.573.215-.153.051c-.102.03-.205.052-.31.066l-.156.014-.209.005-.208-.008-.206-.02.024.162.013.168.004.11.002.102v.096h-.1l-.102-.001h-.102l-.105-.003-.17-.005-.007-.15-.018-.154-.018-.105-.023-.114-.029-.12-.036-.13-.042-.142-.048-.152-.058-.167c-.027-.078-.058-.161-.09-.25l-.053-.138-.078-.206-.049-.144-.036-.146-.026-.15-.01-.111c0-.075.006-.148.02-.22l.029-.107.042-.106c.034-.07.08-.137.134-.201l.091-.096.087-.073c.094-.072.207-.138.342-.197l.142-.058.997-.372c.14-.053.28-.087.416-.1l.136-.007h.038zm.043.631l-.122.002c-.054.004-.109.014-.163.028l-.08.026-1 .376-.14.057c-.058.025-.11.05-.155.077l-.065.039-.08.06c-.032.029-.06.059-.082.09l-.03.049-.028.079c-.01.037-.015.076-.015.117l.003.064.017.105c.01.05.025.103.045.16l.032.09.264.695c.118.026.238.043.36.051l.185.006h.02l.145-.008c.098-.01.197-.03.297-.058l.151-.049.73-.275.115-.052c.05-.025.095-.055.138-.088l.061-.052.084-.087.07-.095.055-.102.043-.109.028-.113.013-.118-.003-.12c-.004-.053-.015-.107-.03-.16l-.027-.082-.051-.111c-.026-.048-.055-.092-.09-.134l-.053-.061-.09-.082-.097-.07-.105-.056-.11-.044c-.077-.025-.156-.04-.24-.045zm-1.51-5.047l.316.551-2.113 1.222-.126.078c-.052.034-.099.067-.139.099l-.056.047-.069.073c-.027.033-.049.067-.065.101l-.02.053-.016.082c-.004.037-.002.076.004.117l.013.061.033.1c.019.047.041.097.069.15l.045.082.35.61.068.12.062.116.056.117.05.12.046.126.039.135.033.146.028.16-.556.09-.02-.104-.02-.092-.022-.089-.028-.088-.034-.091-.043-.097-.033-.07-.04-.08-.046-.087-.052-.096-.059-.107-.065-.119-.075-.132-.116-.201-.064-.112-.07-.135-.06-.14-.05-.145-.027-.11c-.014-.074-.02-.148-.016-.223l.01-.113.025-.112c.022-.075.055-.15.1-.224l.073-.111.072-.088c.08-.088.182-.172.305-.254l.131-.08 2.172-1.256zm1.197 2.103l.305.553-.954.576-.102.061-.091.054-.08.045-.106.058-.097.048-.093.041-.092.036-.097.033-.11.036-.035-.108-.056-.176-.022-.066-.024-.073-.02-.06-.016-.046-.012-.036-.009-.023-.006-.011.092-.033.08-.03.067-.025.089-.038.08-.038.078-.04.082-.045.06-.036.069-.04.079-.048.941-.569z"/>
        <path id="prefix__b" d="M22.596 45.747l.097.023.087.018.08.015.08.012.08.008.084.004h.094l.109-.005.081-.005.09-.006.098-.01.108-.01.121-.01.134-.014.152-.01.152.002.152.013.112.02c.074.017.144.043.211.076l.098.056.093.067c.06.05.115.11.165.18l.07.113.051.101c.047.108.082.234.106.38l.02.15.256 2.48-.63.065-.249-2.413-.013-.112c-.01-.071-.023-.135-.038-.192l-.024-.079-.038-.092c-.02-.037-.042-.07-.066-.1l-.039-.038-.068-.049c-.033-.018-.068-.033-.107-.043l-.061-.014-.105-.01c-.05-.002-.104-.002-.163.002l-.09.008-.375.037-.135.012-.126.01-.124.004-.124-.003-.128-.012-.133-.02-.145-.029-.156-.039.156-.541zm4.803-.562l.825 3.715-.612.14-.704-3.172-.723.165-.121-.543 1.335-.305zm2.693-.77l.106.005.103.017.101.028.106.042c.069.034.136.078.2.133l.096.09.073.085c.071.092.135.205.194.34l.056.14.671 1.856.628-.228.188.522-3.215 1.173-.189-.52 1.994-.73-.64-1.772-.054-.138c-.024-.057-.049-.108-.073-.154l-.037-.064-.06-.08c-.028-.032-.057-.06-.088-.08l-.047-.03-.077-.03c-.037-.01-.075-.016-.116-.017l-.063.004-.103.015c-.049.01-.1.023-.157.041l-.087.03-.122.044-.128.046-.12.04-.118.033-.12.026-.126.02-.13.013-.095.005-.101.002h-.108v-.138l.003-.144.003-.146.001-.137.1-.001.09-.002.08-.003.11-.01.11-.019.075-.017.081-.023.087-.028.1-.034c.047-.017.1-.035.157-.057l.09-.033.145-.046c.097-.028.196-.048.296-.062.044-.005.087-.007.13-.007zm-12.297.56l.102.113c.293.352.458.822.428 1.352l-.018.179-.031.177c-.112.511-.393.915-.764 1.173l-.143.09-.086-.12.122-.137c.269-.315.425-.604.51-1.039l.032-.195.021-.197c.036-.441-.036-.762-.209-1.14l-.08-.165.116-.09zm2.354.911l1.455.024-.02 1.304-.004.118-.007.105-.008.098-.012.095-.016.098-.024.099-.017.07-.02.077-.021.085-.61-.128.027-.102.023-.088.018-.079.014-.075.01-.073.008-.077.006-.085.003-.1.013-.803-.827-.014.01-.549zm-4.481-.771l.039.069.033.064.029.062.024.06.02.063.018.064.015.065.012.073.157 1.132.092-.048.085-.057.08-.063.074-.07.07-.078.064-.085.06-.089.056-.096.051-.103.07-.164.064-.18-.299-.155.138-.274.524.27-.043.278-.064.173c-.046.11-.096.213-.151.308l-.087.135-.094.126c-.066.079-.138.15-.215.216l-.12.091-.128.082c-.088.05-.183.095-.284.133l-.156.052-.165.043c-.113.026-.232.046-.36.06l-.194.017-.03-.32.157-.014.165-.017.17-.026.171-.038-.154-.953-.015-.08-.013-.071-.012-.064-.02-.084-.02-.073-.024-.07-.025-.06-.027-.06-.033-.063.295-.181zm-3.405-1.05l.041.033.038.03.036.026.036.024.037.023.087.043.053.023.064.026.074.028.084.031.1.036.114.048.108.061.066.05.057.056.048.065.036.074.025.083.013.094v.076c-.005.053-.015.11-.033.173l-.032.096-.468 1.253-.322-.116.455-1.22.025-.075.018-.067.012-.06.002-.053-.005-.048-.013-.042-.022-.04-.03-.035-.04-.033-.047-.028-.059-.027-.068-.026-.191-.07-.069-.026-.064-.026-.061-.026-.06-.03-.06-.036-.06-.04-.064-.048-.067-.056.206-.224zm-.186-.632l.05.14-.15.1c-.33.23-.549.468-.742.866l-.08.18-.072.185c-.147.417-.165.748-.103 1.163l.031.184-.13.056-.071-.152c-.193-.468-.207-1.03.024-1.585.258-.62.723-1.006 1.243-1.137zm2.9 1.262l.216.068-.274.449-.001.358-.074.024c-.044.011-.08.014-.115.01l-.049-.011-.068-.029c-.16-.09-.142-.288-.026-.442.084-.11.284-.317.39-.427zm21.655-3.994l.21.437.224.738.042.174c.014.077.023.152.026.227l.002.111-.01.161-.019.15-.028.138.125.013.127.01.127.011.126.012.34.028.243.352.046.073.039.07.03.068.029.072.023.08.023.086.013.062.014.07.015.076-2.322 1.616-.311-.454 1.979-1.376-.011-.043-.014-.038-.02-.037-.026-.042-.017-.024-.022-.032-.027-.037-.031-.037-.242.001H36.9l-.193-.001-.178-.002-.318-.007-.14-.006-.17-.007-.195-.011-.085-.006-.116-.012-.103-.012-.09-.013-.08-.014-.071-.015-.062-.017-.083-.028-.077-.027-.075-.033-.08-.035-.057-.03-.065-.037-.071-.045-.08-.054-.09-.065-.101-.077-.083-.066c-.058-.048-.121-.1-.19-.16l-.109-.092.389-.473.126.115c.054.05.106.094.156.135l.073.058.105.078.102.068.098.06.095.049.094.043.094.035.14.041.15.031.157.023.168.015.121.006.13.006.14.006.234.012.018-.075.016-.084.014-.093.01-.1v-.107l-.008-.116-.02-.122-.032-.13-.188-.603-.464.186-.183-.478.242-.109.238-.107.48-.214zM14.28 44.484l.216.066-.274.45v.36l-.074.024c-.044.012-.081.014-.115.01l-.05-.011-.068-.029c-.16-.091-.141-.289-.026-.441.085-.114.285-.317.39-.429zm18.847-1.61l.594 1.137.053.103.044.094.039.089.035.088.03.092.028.097.018.068.02.077.02.082-.594.174-.023-.1-.022-.087-.02-.078-.023-.071-.026-.068-.029-.07-.035-.076-.044-.087-.367-.701-.726.372-.25-.48 1.278-.655zM21.187.2c1.994 0 3.968.278 5.866.828.086.025.155.089.185.173.03.085.02.178-.03.253-1.104 1.653-2.832 2.782-4.768 3.122v9.747c.84.147 1.636.438 2.374.87l6.23-7.467c-1.265-1.513-1.866-3.493-1.655-5.474.01-.089.06-.168.137-.213.078-.045.172-.05.253-.013 3.644 1.627 6.752 4.251 8.987 7.585.05.075.061.169.03.252-.03.085-.099.15-.184.174-.657.19-1.336.287-2.021.287-1.278 0-2.525-.337-3.625-.977l-6.23 7.467c.549.657.974 1.395 1.264 2.199l9.545-1.692c-.003-1.976.802-3.883 2.23-5.263.065-.062.154-.09.242-.074s.162.072.202.152c1.428 2.93 2.152 6.08 2.152 9.366 0 .752-.039 1.51-.117 2.253-.01.089-.06.168-.137.213-.078.045-.172.05-.254.014-1.81-.806-3.212-2.32-3.882-4.177l-9.547 1.692v.005c0 .866-.15 1.712-.444 2.517l8.368 4.857c1.269-1.525 3.116-2.467 5.107-2.593.089-.006.174.032.23.1.058.069.079.162.058.247-.959 3.899-2.997 7.437-5.893 10.237-.065.06-.154.09-.242.073-.088-.015-.162-.071-.202-.152-.879-1.792-.99-3.865-.313-5.728l-8.375-4.862c-1.103 1.316-2.61 2.189-4.288 2.482v9.708h10.814c.12 0 .229.08.265.197.037.115-.004.242-.104.312-3.588 2.555-7.818 3.907-12.229 3.907-4.412 0-8.641-1.352-12.23-3.907-.099-.07-.14-.197-.104-.312.036-.117.144-.197.266-.197h10.814V28.68c-1.686-.295-3.198-1.173-4.301-2.498l-8.397 4.875c.675 1.854.569 3.92-.302 5.707-.04.08-.114.138-.202.153-.087.016-.178-.01-.242-.074-2.884-2.795-4.914-6.327-5.87-10.214-.02-.087 0-.178.057-.247.058-.069.144-.106.233-.1 1.976.134 3.812 1.075 5.072 2.59l8.395-4.874c-.29-.798-.436-1.636-.436-2.496v-.005L4.39 19.805c-.669 1.856-2.072 3.371-3.882 4.177-.082.037-.176.031-.252-.014-.078-.045-.129-.124-.138-.213C.04 23.011 0 22.254 0 21.502c0-3.286.724-6.437 2.152-9.366.039-.08.114-.136.202-.152.088-.016.177.012.241.074 1.428 1.38 2.233 3.287 2.23 5.263l9.546 1.692c.29-.804.714-1.542 1.264-2.199L9.405 9.347c-1.099.64-2.347.977-3.625.977-.683 0-1.364-.096-2.02-.287-.085-.024-.155-.09-.185-.174-.03-.083-.019-.177.031-.252 2.235-3.334 5.343-5.958 8.986-7.585.082-.036.175-.032.253.013.077.045.128.124.138.213.21 1.98-.39 3.96-1.656 5.474l6.23 7.466c.738-.43 1.535-.722 2.375-.869V4.576c-1.937-.34-3.665-1.469-4.768-3.122-.05-.075-.061-.168-.03-.253.03-.084.099-.148.184-.173C17.217.478 19.191.2 21.186.2zM41.14 36.286l.408.324.177.21c.17.211.313.423.43.636l.11.213.093.216c.085.217.145.438.18.662l.028.226.012.23c.004.232-.015.47-.057.712l-.05.245-.066.248c-.073.252-.168.513-.286.782l-.125.272-.542-.24.122-.273.124-.29.08-.201.073-.208.064-.214-1.689-.609-.14-.049-.128-.043-.113-.036-.105-.031-.098-.026-.092-.02-.13-.023-.123-.014-.124-.008-.131-.004-.017-.652.146-.003.134.003.127.008.121.014.12.023.117.028.122.036.13.044 1.977.767.005-.196c-.001-.086-.008-.172-.02-.257l-.02-.126-.046-.187-.06-.185-.076-.183-.088-.181-.104-.179-.117-.178-.132-.178-.145-.178-.157-.178-.528.353-.314-.473.923-.629zm1.82-3.293l.472.292-.392.62 2.745 1.709-.338.533-2.743-1.707-.474.749-.072.113-.072.105-.072.1-.078.093-.086.091-.096.09-.072.063-.078.062-.086.065-.083-.117-.083-.11-.083-.111-.084-.118.078-.062.07-.056.06-.05.081-.077.08-.086.053-.069.056-.078.06-.087.049-.075c.034-.053.074-.113.117-.182l1.071-1.7zm.942-1.891l1.213.545.109.05.097.047.088.048.086.051.083.053.083.061.06.044.064.049.07.053-.374.505-.084-.066-.074-.056-.066-.05-.064-.043-.065-.04-.068-.037-.077-.04-.092-.043-.75-.336-.354.746-.512-.23.627-1.311zm1.202-3.504l.077.005.068.004.06.004.079.009.068.011.06.013.057.015.055.016.061.019.749.24.16.059c.155.064.299.147.43.248l.127.108.15.15c.099.107.193.226.282.357l.131.206.161.277.163.276.162.277.159.28-.13.075-.126.074-.126.074-.13.076-.616-1.049-.08-.131-.084-.132-.094-.13-.107-.122-.079-.075-.087-.072-.095-.067-.104-.061-.114-.054-.125-.046-.802-.259-.685 2.102-1.504-.484.195-.595.979.315.655-2.013zm.89-6.166l.569.038.566.188.182.067.174.078.166.085.153.091.14.098.127.102.076.069.067.07.058.07.002-.004.045.06.269-.196.27-.202.27-.203.267-.2.362.472-2.44 1.79.067.041.079.041.06.028.069.027.076.025.086.027.095.024.105.022.115.021.126.019.139.016.178.018.181.017.175.016.166.014.461.043-.043.63-.214-.017-.422-.04-.213-.021-.068-.006-.069-.008-.068-.007-.067-.005-.202-.024-.206-.036-.205-.05-.2-.06-.13-.05-.125-.056-.121-.063-.116-.07-.108-.078-.1-.087-.077.047-.07.04-.063.034-.087.043-.078.035-.072.028-.07.022-.067.021-.072.02-.35.1-.167-.592.188-.053.176-.05.17-.06.113-.047.118-.057.126-.068.134-.077.144-.09.155-.104.125-.086c.087-.061.18-.13.282-.204l.157-.117.315-.239-.058-.083-.037-.045-.045-.043-.052-.042-.093-.061-.105-.06-.117-.059-.129-.055-.137-.053-.142-.052-.546-.188-.133.491-.498-.145.237-.975zm3.331-3.013l.1.001.116.004.146 2.13-.552.037-.106-1.54-.142.015-.135.026-.128.036-.187.064-.185.071-.165.061-.176.058-.188.055-.154.036c-.107.022-.221.04-.344.052l-.19.017-.656.044.054.778-.553.038-.095-1.407 1.18-.078.15-.015.154-.023.156-.032.234-.06.23-.076.215-.077.225-.075.155-.043.153-.035.153-.027.08-.011.066-.006.065-.005.07-.005.094-.004.103-.004h.057zm-3.698-3.784l.148.725 3.159-.652.126.624-3.158.653.178.877.025.133.022.127.015.123.01.123v.127l-.006.133-.01.094-.013.1-.017.106-.14-.027-.137-.023-.136-.024-.142-.027.014-.101.011-.09.009-.077.006-.112-.005-.12-.007-.086-.013-.096-.018-.106-.016-.088-.042-.214-.025-.126-.377-1.864.54-.112zm.89-4.484l.037.001.15.015c.1.015.195.038.287.07l.135.056.128.07c.083.049.16.107.232.173l.104.105.096.116c.06.08.113.166.157.258l.062.142.049.149c.028.1.046.199.055.298l.005.15-.008.146c-.01.096-.031.19-.06.28l-.053.132-.064.128c-.047.083-.103.162-.168.236l-.105.109-.116.1c-.082.062-.172.116-.271.164l-.155.065-.573.215-.153.051c-.102.03-.205.052-.31.066l-.156.014-.209.005-.208-.008-.206-.02.024.162.013.168.004.11.002.102v.096h-.1l-.102-.001h-.102l-.105-.003-.17-.005-.007-.15-.018-.154-.018-.105-.023-.114-.029-.12-.036-.13-.042-.142-.048-.152-.058-.167c-.027-.078-.058-.161-.09-.25l-.053-.138-.078-.206-.049-.144-.036-.146-.026-.15-.01-.111c0-.075.006-.148.02-.22l.029-.107.042-.106c.034-.07.08-.137.134-.201l.091-.096.087-.073c.094-.072.207-.138.342-.197l.142-.058.997-.372c.14-.053.28-.087.416-.1l.136-.007h.038zm.043.631l-.122.002c-.054.004-.109.014-.163.028l-.08.026-1 .376-.14.057c-.058.025-.11.05-.155.077l-.065.039-.08.06c-.032.029-.06.059-.082.09l-.03.049-.028.079c-.01.037-.015.076-.015.117l.003.064.017.105c.01.05.025.103.045.16l.032.09.264.695c.118.026.238.043.36.051l.185.006h.02l.145-.008c.098-.01.197-.03.297-.058l.151-.049.73-.275.115-.052c.05-.025.095-.055.138-.088l.061-.052.084-.087.07-.095.055-.102.043-.109.028-.113.013-.118-.003-.12c-.004-.053-.015-.107-.03-.16l-.027-.082-.051-.111c-.026-.048-.055-.092-.09-.134l-.053-.061-.09-.082-.097-.07-.105-.056-.11-.044c-.077-.025-.156-.04-.24-.045zm-1.51-5.047l.316.551-2.113 1.222-.126.078c-.052.034-.099.067-.139.099l-.056.047-.069.073c-.027.033-.049.067-.065.101l-.02.053-.016.082c-.004.037-.002.076.004.117l.013.061.033.1c.019.047.041.097.069.15l.045.082.35.61.068.12.062.116.056.117.05.12.046.126.039.135.033.146.028.16-.556.09-.02-.104-.02-.092-.022-.089-.028-.088-.034-.091-.043-.097-.033-.07-.04-.08-.046-.087-.052-.096-.059-.107-.065-.119-.075-.132-.116-.201-.064-.112-.07-.135-.06-.14-.05-.145-.027-.11c-.014-.074-.02-.148-.016-.223l.01-.113.025-.112c.022-.075.055-.15.1-.224l.073-.111.072-.088c.08-.088.182-.172.305-.254l.131-.08 2.172-1.256zm1.197 2.103l.305.553-.954.576-.102.061-.091.054-.08.045-.106.058-.097.048-.093.041-.092.036-.097.033-.11.036-.035-.108-.056-.176-.022-.066-.024-.073-.02-.06-.016-.046-.012-.036-.009-.023-.006-.011.092-.033.08-.03.067-.025.089-.038.08-.038.078-.04.082-.045.06-.036.069-.04.079-.048.941-.569z"/>
        <path id="prefix__c" d="M22.596 45.747l.097.023.087.018.08.015.08.012.08.008.084.004h.094l.109-.005.081-.005.09-.006.098-.01.108-.01.121-.01.134-.014.152-.01.152.002.152.013.112.02c.074.017.144.043.211.076l.098.056.093.067c.06.05.115.11.165.18l.07.113.051.101c.047.108.082.234.106.38l.02.15.256 2.48-.63.065-.249-2.413-.013-.112c-.01-.071-.023-.135-.038-.192l-.024-.079-.038-.092c-.02-.037-.042-.07-.066-.1l-.039-.038-.068-.049c-.033-.018-.068-.033-.107-.043l-.061-.014-.105-.01c-.05-.002-.104-.002-.163.002l-.09.008-.375.037-.135.012-.126.01-.124.004-.124-.003-.128-.012-.133-.02-.145-.029-.156-.039.156-.541zm4.803-.562l.825 3.715-.612.14-.704-3.172-.723.165-.121-.543 1.335-.305zm2.693-.77l.106.005.103.017.101.028.106.042c.069.034.136.078.2.133l.096.09.073.085c.071.092.135.205.194.34l.056.14.671 1.856.628-.228.188.522-3.215 1.173-.189-.52 1.994-.73-.64-1.772-.054-.138c-.024-.057-.049-.108-.073-.154l-.037-.064-.06-.08c-.028-.032-.057-.06-.088-.08l-.047-.03-.077-.03c-.037-.01-.075-.016-.116-.017l-.063.004-.103.015c-.049.01-.1.023-.157.041l-.087.03-.122.044-.128.046-.12.04-.118.033-.12.026-.126.02-.13.013-.095.005-.101.002h-.108v-.138l.003-.144.003-.146.001-.137.1-.001.09-.002.08-.003.11-.01.11-.019.075-.017.081-.023.087-.028.1-.034c.047-.017.1-.035.157-.057l.09-.033.145-.046c.097-.028.196-.048.296-.062.044-.005.087-.007.13-.007zm-12.297.56l.102.113c.293.352.458.822.428 1.352l-.018.179-.031.177c-.112.511-.393.915-.764 1.173l-.143.09-.086-.12.122-.137c.269-.315.425-.604.51-1.039l.032-.195.021-.197c.036-.441-.036-.762-.209-1.14l-.08-.165.116-.09zm2.354.911l1.455.024-.02 1.304-.004.118-.007.105-.008.098-.012.095-.016.098-.024.099-.017.07-.02.077-.021.085-.61-.128.027-.102.023-.088.018-.079.014-.075.01-.073.008-.077.006-.085.003-.1.013-.803-.827-.014.01-.549zm-4.481-.771l.039.069.033.064.029.062.024.06.02.063.018.064.015.065.012.073.157 1.132.092-.048.085-.057.08-.063.074-.07.07-.078.064-.085.06-.089.056-.096.051-.103.07-.164.064-.18-.299-.155.138-.274.524.27-.043.278-.064.173c-.046.11-.096.213-.151.308l-.087.135-.094.126c-.066.079-.138.15-.215.216l-.12.091-.128.082c-.088.05-.183.095-.284.133l-.156.052-.165.043c-.113.026-.232.046-.36.06l-.194.017-.03-.32.157-.014.165-.017.17-.026.171-.038-.154-.953-.015-.08-.013-.071-.012-.064-.02-.084-.02-.073-.024-.07-.025-.06-.027-.06-.033-.063.295-.181zm-3.405-1.05l.041.033.038.03.036.026.036.024.037.023.087.043.053.023.064.026.074.028.084.031.1.036.114.048.108.061.066.05.057.056.048.065.036.074.025.083.013.094v.076c-.005.053-.015.11-.033.173l-.032.096-.468 1.253-.322-.116.455-1.22.025-.075.018-.067.012-.06.002-.053-.005-.048-.013-.042-.022-.04-.03-.035-.04-.033-.047-.028-.059-.027-.068-.026-.191-.07-.069-.026-.064-.026-.061-.026-.06-.03-.06-.036-.06-.04-.064-.048-.067-.056.206-.224zm-.186-.632l.05.14-.15.1c-.33.23-.549.468-.742.866l-.08.18-.072.185c-.147.417-.165.748-.103 1.163l.031.184-.13.056-.071-.152c-.193-.468-.207-1.03.024-1.585.258-.62.723-1.006 1.243-1.137zm2.9 1.262l.216.068-.274.449-.001.358-.074.024c-.044.011-.08.014-.115.01l-.049-.011-.068-.029c-.16-.09-.142-.288-.026-.442.084-.11.284-.317.39-.427zm21.655-3.994l.21.437.224.738.042.174c.014.077.023.152.026.227l.002.111-.01.161-.019.15-.028.138.125.013.127.01.127.011.126.012.34.028.243.352.046.073.039.07.03.068.029.072.023.08.023.086.013.062.014.07.015.076-2.322 1.616-.311-.454 1.979-1.376-.011-.043-.014-.038-.02-.037-.026-.042-.017-.024-.022-.032-.027-.037-.031-.037-.242.001H36.9l-.193-.001-.178-.002-.318-.007-.14-.006-.17-.007-.195-.011-.085-.006-.116-.012-.103-.012-.09-.013-.08-.014-.071-.015-.062-.017-.083-.028-.077-.027-.075-.033-.08-.035-.057-.03-.065-.037-.071-.045-.08-.054-.09-.065-.101-.077-.083-.066c-.058-.048-.121-.1-.19-.16l-.109-.092.389-.473.126.115c.054.05.106.094.156.135l.073.058.105.078.102.068.098.06.095.049.094.043.094.035.14.041.15.031.157.023.168.015.121.006.13.006.14.006.234.012.018-.075.016-.084.014-.093.01-.1v-.107l-.008-.116-.02-.122-.032-.13-.188-.603-.464.186-.183-.478.242-.109.238-.107.48-.214zM14.28 44.484l.216.066-.274.45v.36l-.074.024c-.044.012-.081.014-.115.01l-.05-.011-.068-.029c-.16-.091-.141-.289-.026-.441.085-.114.285-.317.39-.429zm18.847-1.61l.594 1.137.053.103.044.094.039.089.035.088.03.092.028.097.018.068.02.077.02.082-.594.174-.023-.1-.022-.087-.02-.078-.023-.071-.026-.068-.029-.07-.035-.076-.044-.087-.367-.701-.726.372-.25-.48 1.278-.655zM21.187.2c1.994 0 3.968.278 5.866.828.086.025.155.089.185.173.03.085.02.178-.03.253-1.104 1.653-2.832 2.782-4.768 3.122v9.747c.84.147 1.636.438 2.374.87l6.23-7.467c-1.265-1.513-1.866-3.493-1.655-5.474.01-.089.06-.168.137-.213.078-.045.172-.05.253-.013 3.644 1.627 6.752 4.251 8.987 7.585.05.075.061.169.03.252-.03.085-.099.15-.184.174-.657.19-1.336.287-2.021.287-1.278 0-2.525-.337-3.625-.977l-6.23 7.467c.549.657.974 1.395 1.264 2.199l9.545-1.692c-.003-1.976.802-3.883 2.23-5.263.065-.062.154-.09.242-.074s.162.072.202.152c1.428 2.93 2.152 6.08 2.152 9.366 0 .752-.039 1.51-.117 2.253-.01.089-.06.168-.137.213-.078.045-.172.05-.254.014-1.81-.806-3.212-2.32-3.882-4.177l-9.547 1.692v.005c0 .866-.15 1.712-.444 2.517l8.368 4.857c1.269-1.525 3.116-2.467 5.107-2.593.089-.006.174.032.23.1.058.069.079.162.058.247-.959 3.899-2.997 7.437-5.893 10.237-.065.06-.154.09-.242.073-.088-.015-.162-.071-.202-.152-.879-1.792-.99-3.865-.313-5.728l-8.375-4.862c-1.103 1.316-2.61 2.189-4.288 2.482v9.708h10.814c.12 0 .229.08.265.197.037.115-.004.242-.104.312-3.588 2.555-7.818 3.907-12.229 3.907-4.412 0-8.641-1.352-12.23-3.907-.099-.07-.14-.197-.104-.312.036-.117.144-.197.266-.197h10.814V28.68c-1.686-.295-3.198-1.173-4.301-2.498l-8.397 4.875c.675 1.854.569 3.92-.302 5.707-.04.08-.114.138-.202.153-.087.016-.178-.01-.242-.074-2.884-2.795-4.914-6.327-5.87-10.214-.02-.087 0-.178.057-.247.058-.069.144-.106.233-.1 1.976.134 3.812 1.075 5.072 2.59l8.395-4.874c-.29-.798-.436-1.636-.436-2.496v-.005L4.39 19.805c-.669 1.856-2.072 3.371-3.882 4.177-.082.037-.176.031-.252-.014-.078-.045-.129-.124-.138-.213C.04 23.011 0 22.254 0 21.502c0-3.286.724-6.437 2.152-9.366.039-.08.114-.136.202-.152.088-.016.177.012.241.074 1.428 1.38 2.233 3.287 2.23 5.263l9.546 1.692c.29-.804.714-1.542 1.264-2.199L9.405 9.347c-1.099.64-2.347.977-3.625.977-.683 0-1.364-.096-2.02-.287-.085-.024-.155-.09-.185-.174-.03-.083-.019-.177.031-.252 2.235-3.334 5.343-5.958 8.986-7.585.082-.036.175-.032.253.013.077.045.128.124.138.213.21 1.98-.39 3.96-1.656 5.474l6.23 7.466c.738-.43 1.535-.722 2.375-.869V4.576c-1.937-.34-3.665-1.469-4.768-3.122-.05-.075-.061-.168-.03-.253.03-.084.099-.148.184-.173C17.217.478 19.191.2 21.186.2zM41.14 36.286l.408.324.177.21c.17.211.313.423.43.636l.11.213.093.216c.085.217.145.438.18.662l.028.226.012.23c.004.232-.015.47-.057.712l-.05.245-.066.248c-.073.252-.168.513-.286.782l-.125.272-.542-.24.122-.273.124-.29.08-.201.073-.208.064-.214-1.689-.609-.14-.049-.128-.043-.113-.036-.105-.031-.098-.026-.092-.02-.13-.023-.123-.014-.124-.008-.131-.004-.017-.652.146-.003.134.003.127.008.121.014.12.023.117.028.122.036.13.044 1.977.767.005-.196c-.001-.086-.008-.172-.02-.257l-.02-.126-.046-.187-.06-.185-.076-.183-.088-.181-.104-.179-.117-.178-.132-.178-.145-.178-.157-.178-.528.353-.314-.473.923-.629zm1.82-3.293l.472.292-.392.62 2.745 1.709-.338.533-2.743-1.707-.474.749-.072.113-.072.105-.072.1-.078.093-.086.091-.096.09-.072.063-.078.062-.086.065-.083-.117-.083-.11-.083-.111-.084-.118.078-.062.07-.056.06-.05.081-.077.08-.086.053-.069.056-.078.06-.087.049-.075c.034-.053.074-.113.117-.182l1.071-1.7zm.942-1.891l1.213.545.109.05.097.047.088.048.086.051.083.053.083.061.06.044.064.049.07.053-.374.505-.084-.066-.074-.056-.066-.05-.064-.043-.065-.04-.068-.037-.077-.04-.092-.043-.75-.336-.354.746-.512-.23.627-1.311zm1.202-3.504l.077.005.068.004.06.004.079.009.068.011.06.013.057.015.055.016.061.019.749.24.16.059c.155.064.299.147.43.248l.127.108.15.15c.099.107.193.226.282.357l.131.206.161.277.163.276.162.277.159.28-.13.075-.126.074-.126.074-.13.076-.616-1.049-.08-.131-.084-.132-.094-.13-.107-.122-.079-.075-.087-.072-.095-.067-.104-.061-.114-.054-.125-.046-.802-.259-.685 2.102-1.504-.484.195-.595.979.315.655-2.013zm.89-6.166l.569.038.566.188.182.067.174.078.166.085.153.091.14.098.127.102.076.069.067.07.058.07.002-.004.045.06.269-.196.27-.202.27-.203.267-.2.362.472-2.44 1.79.067.041.079.041.06.028.069.027.076.025.086.027.095.024.105.022.115.021.126.019.139.016.178.018.181.017.175.016.166.014.461.043-.043.63-.214-.017-.422-.04-.213-.021-.068-.006-.069-.008-.068-.007-.067-.005-.202-.024-.206-.036-.205-.05-.2-.06-.13-.05-.125-.056-.121-.063-.116-.07-.108-.078-.1-.087-.077.047-.07.04-.063.034-.087.043-.078.035-.072.028-.07.022-.067.021-.072.02-.35.1-.167-.592.188-.053.176-.05.17-.06.113-.047.118-.057.126-.068.134-.077.144-.09.155-.104.125-.086c.087-.061.18-.13.282-.204l.157-.117.315-.239-.058-.083-.037-.045-.045-.043-.052-.042-.093-.061-.105-.06-.117-.059-.129-.055-.137-.053-.142-.052-.546-.188-.133.491-.498-.145.237-.975zm3.331-3.013l.1.001.116.004.146 2.13-.552.037-.106-1.54-.142.015-.135.026-.128.036-.187.064-.185.071-.165.061-.176.058-.188.055-.154.036c-.107.022-.221.04-.344.052l-.19.017-.656.044.054.778-.553.038-.095-1.407 1.18-.078.15-.015.154-.023.156-.032.234-.06.23-.076.215-.077.225-.075.155-.043.153-.035.153-.027.08-.011.066-.006.065-.005.07-.005.094-.004.103-.004h.057zm-3.698-3.784l.148.725 3.159-.652.126.624-3.158.653.178.877.025.133.022.127.015.123.01.123v.127l-.006.133-.01.094-.013.1-.017.106-.14-.027-.137-.023-.136-.024-.142-.027.014-.101.011-.09.009-.077.006-.112-.005-.12-.007-.086-.013-.096-.018-.106-.016-.088-.042-.214-.025-.126-.377-1.864.54-.112zm.89-4.484l.037.001.15.015c.1.015.195.038.287.07l.135.056.128.07c.083.049.16.107.232.173l.104.105.096.116c.06.08.113.166.157.258l.062.142.049.149c.028.1.046.199.055.298l.005.15-.008.146c-.01.096-.031.19-.06.28l-.053.132-.064.128c-.047.083-.103.162-.168.236l-.105.109-.116.1c-.082.062-.172.116-.271.164l-.155.065-.573.215-.153.051c-.102.03-.205.052-.31.066l-.156.014-.209.005-.208-.008-.206-.02.024.162.013.168.004.11.002.102v.096h-.1l-.102-.001h-.102l-.105-.003-.17-.005-.007-.15-.018-.154-.018-.105-.023-.114-.029-.12-.036-.13-.042-.142-.048-.152-.058-.167c-.027-.078-.058-.161-.09-.25l-.053-.138-.078-.206-.049-.144-.036-.146-.026-.15-.01-.111c0-.075.006-.148.02-.22l.029-.107.042-.106c.034-.07.08-.137.134-.201l.091-.096.087-.073c.094-.072.207-.138.342-.197l.142-.058.997-.372c.14-.053.28-.087.416-.1l.136-.007h.038zm.043.631l-.122.002c-.054.004-.109.014-.163.028l-.08.026-1 .376-.14.057c-.058.025-.11.05-.155.077l-.065.039-.08.06c-.032.029-.06.059-.082.09l-.03.049-.028.079c-.01.037-.015.076-.015.117l.003.064.017.105c.01.05.025.103.045.16l.032.09.264.695c.118.026.238.043.36.051l.185.006h.02l.145-.008c.098-.01.197-.03.297-.058l.151-.049.73-.275.115-.052c.05-.025.095-.055.138-.088l.061-.052.084-.087.07-.095.055-.102.043-.109.028-.113.013-.118-.003-.12c-.004-.053-.015-.107-.03-.16l-.027-.082-.051-.111c-.026-.048-.055-.092-.09-.134l-.053-.061-.09-.082-.097-.07-.105-.056-.11-.044c-.077-.025-.156-.04-.24-.045zm-1.51-5.047l.316.551-2.113 1.222-.126.078c-.052.034-.099.067-.139.099l-.056.047-.069.073c-.027.033-.049.067-.065.101l-.02.053-.016.082c-.004.037-.002.076.004.117l.013.061.033.1c.019.047.041.097.069.15l.045.082.35.61.068.12.062.116.056.117.05.12.046.126.039.135.033.146.028.16-.556.09-.02-.104-.02-.092-.022-.089-.028-.088-.034-.091-.043-.097-.033-.07-.04-.08-.046-.087-.052-.096-.059-.107-.065-.119-.075-.132-.116-.201-.064-.112-.07-.135-.06-.14-.05-.145-.027-.11c-.014-.074-.02-.148-.016-.223l.01-.113.025-.112c.022-.075.055-.15.1-.224l.073-.111.072-.088c.08-.088.182-.172.305-.254l.131-.08 2.172-1.256zm1.197 2.103l.305.553-.954.576-.102.061-.091.054-.08.045-.106.058-.097.048-.093.041-.092.036-.097.033-.11.036-.035-.108-.056-.176-.022-.066-.024-.073-.02-.06-.016-.046-.012-.036-.009-.023-.006-.011.092-.033.08-.03.067-.025.089-.038.08-.038.078-.04.082-.045.06-.036.069-.04.079-.048.941-.569z"/>
        <filter id="prefix__d" width="132.2%" height="132.5%" x="-16.1%" y="-8.1%" filterUnits="objectBoundingBox">
            <feOffset dy="4" in="SourceAlpha" result="shadowOffsetOuter1"/>
            <feGaussianBlur in="shadowOffsetOuter1" result="shadowBlurOuter1" stdDeviation="2"/>
            <feColorMatrix in="shadowBlurOuter1" values="0 0 0 0 0 0 0 0 0 0 0 0 0 0 0 0 0 0 0.1 0"/>
        </filter>
    </defs>
    <g fill="none" fill-rule="evenodd" opacity=".5" transform="translate(4)">
        <use fill="#FFF" xlink:href="#prefix__a"/>
        <use fill="#FFF" xlink:href="#prefix__b"/>
        <use fill="#000" filter="url(#prefix__d)" xlink:href="#prefix__c"/>
        <use fill="#480A35" xlink:href="#prefix__c"/>
    </g>
</svg>
