<svg xmlns="http://www.w3.org/2000/svg" width="58" height="51" viewBox="0 0 58 51">
    <path fill="#480A35" fill-rule="evenodd" d="M25.939 48.275c.696 0 1.167.51 1.167 1.256 0 .903-.621 1.297-1.207 1.297-.657 0-1.162-.485-1.162-1.256 0-.818.53-1.297 1.202-1.297zm23.03 0c.791 0 1.002.701 1.002 1.15 0 .091-.01.162-.015.207h-1.703c.01.6.39.848.831.848.316 0 .506-.056.672-.127l.075.319c-.156.07-.421.155-.807.155-.746 0-1.192-.499-1.192-1.235 0-.737.431-1.317 1.137-1.317zM14.918 47.19v1.534h.01c.155-.272.435-.45.826-.45.601 0 1.027.505 1.022 1.247 0 .872-.546 1.307-1.087 1.307-.35 0-.631-.137-.812-.46h-.015l-.02.404h-.38c.01-.166.02-.414.02-.63V47.19h.436zm-13.136.126c.42 0 .686.091.801.152l-.105.358c-.165-.08-.4-.141-.681-.141-.792 0-1.318.51-1.318 1.402 0 .833.476 1.367 1.298 1.367.265 0 .536-.055.71-.14l.09.347c-.16.08-.48.167-.89.167-.952 0-1.668-.61-1.668-1.726 0-1.064.716-1.786 1.763-1.786zm31.852 0c.42 0 .686.091.801.152l-.105.358c-.165-.08-.4-.141-.681-.141-.792 0-1.318.51-1.318 1.402 0 .833.476 1.367 1.298 1.367.265 0 .536-.055.711-.14l.09.347c-.16.08-.48.167-.891.167-.952 0-1.668-.61-1.668-1.726 0-1.064.716-1.786 1.763-1.786zm-25.96.959c.74 0 .92.51.92.999v.913c0 .212.01.419.04.585h-.4l-.035-.308h-.015c-.135.192-.396.364-.741.364-.491 0-.741-.348-.741-.702 0-.59.52-.913 1.457-.908v-.05c0-.202-.055-.565-.55-.565-.226 0-.462.07-.632.182l-.1-.293c.2-.131.49-.217.796-.217zm28.76 0c.697 0 1.167.51 1.167 1.256 0 .903-.62 1.297-1.207 1.297-.656 0-1.162-.485-1.162-1.256 0-.818.531-1.297 1.203-1.297zm20.346 0c.79 0 1.001.701 1.001 1.15 0 .091-.01.162-.015.207h-1.703c.01.6.39.848.832.848.315 0 .505-.056.67-.127l.076.319c-.155.07-.42.155-.807.155-.746 0-1.191-.499-1.191-1.235 0-.737.43-1.317 1.137-1.317zm-37.985 0c.791 0 1.002.701 1.002 1.15 0 .091-.01.162-.015.207h-1.704c.01.6.391.848.832.848.316 0 .506-.056.671-.127l.075.319c-.155.07-.42.155-.806.155-.746 0-1.192-.499-1.192-1.235 0-.737.43-1.317 1.137-1.317zm35.44.005c.26 0 .49.066.61.126l-.1.343c-.105-.06-.27-.116-.51-.116-.557 0-.857.414-.857.923 0 .565.36.914.841.914.251 0 .416-.066.541-.122l.076.333c-.116.06-.371.147-.697.147-.731 0-1.207-.505-1.207-1.252 0-.751.511-1.296 1.302-1.296zM4.05 47.19v1.524h.01c.07-.126.18-.237.316-.313.13-.075.285-.126.45-.126.326 0 .847.202.847 1.044v1.453h-.44V49.37c0-.394-.146-.727-.562-.727-.285 0-.51.202-.59.444-.026.06-.03.127-.03.212v1.473H3.61V47.19h.441zm17.865 1.085c.05 0 .085.005.125.015v.419c-.045-.01-.09-.015-.15-.015-.31 0-.531.237-.591.57-.01.06-.02.131-.02.206v1.302h-.436v-1.68c0-.287-.005-.534-.02-.762h.385l.016.48h.02c.11-.328.375-.535.671-.535zm30.174 0c.05 0 .085.005.125.015v.419c-.045-.01-.09-.015-.15-.015-.31 0-.53.237-.59.57-.01.06-.021.131-.021.206v1.302h-.436v-1.68c0-.287-.005-.534-.02-.762h.386l.015.48h.02c.11-.328.376-.535.671-.535zm-23.015-1.14c.155 0 .29.035.376.07l-.06.343c-.065-.03-.156-.055-.28-.055-.377 0-.472.333-.472.707v.13h.587v.339h-.587v2.103h-.435v-2.103h-.341v-.338h.34v-.117c0-.343.076-.656.28-.852.166-.162.387-.227.592-.227zm-16.603 1.14c.32 0 .797.212.797 1.06v1.437h-.431V49.39c0-.47-.17-.752-.526-.752-.25 0-.446.187-.521.404-.02.06-.035.14-.035.222v1.508h-.43v-1.463c0-.388-.171-.67-.507-.67-.275 0-.476.221-.546.443-.025.066-.035.141-.035.217v1.473h-.43v-1.78c0-.253-.006-.46-.02-.662h.385l.02.394h.015c.135-.232.36-.45.761-.45.33 0 .582.203.687.49h.01c.075-.136.17-.242.27-.317.146-.111.306-.172.536-.172zm28.847 0c.32 0 .796.212.796 1.06v1.437h-.43V49.39c0-.47-.171-.752-.526-.752-.251 0-.446.187-.522.404-.02.06-.035.14-.035.222v1.508h-.43v-1.463c0-.388-.17-.67-.506-.67-.276 0-.476.221-.546.443-.025.066-.035.141-.035.217v1.473h-.431v-1.78c0-.253-.005-.46-.02-.662h.385l.02.394h.015c.136-.232.361-.45.762-.45.33 0 .581.203.686.49h.01c.075-.136.17-.242.27-.317.146-.111.306-.172.537-.172zm4.679 0c.32 0 .796.212.796 1.06v1.437h-.43V49.39c0-.47-.17-.752-.526-.752-.251 0-.446.187-.522.404-.02.06-.035.14-.035.222v1.508h-.43v-1.463c0-.388-.17-.67-.506-.67-.276 0-.476.221-.546.443-.025.066-.035.141-.035.217v1.473h-.43v-1.78c0-.253-.006-.46-.02-.662h.385l.02.394h.015c.135-.232.36-.45.761-.45.33 0 .581.203.686.49h.01c.075-.136.17-.242.27-.317.146-.111.307-.172.537-.172zm-38.856 1.8c0 .289.19.425.416.425.315 0 .516-.202.586-.409.015-.046.025-.096.025-.141v-.424c-.48-.01-1.027.076-1.027.55zm18.787-1.467c-.521 0-.747.484-.747.948 0 .535.306.939.737.939.42 0 .736-.4.736-.949 0-.414-.205-.938-.726-.938zm10.495 0c-.52 0-.746.484-.746.948 0 .535.306.939.737.939.42 0 .736-.4.736-.949 0-.414-.206-.938-.727-.938zm-20.81.02c-.3 0-.581.207-.672.545-.01.05-.024.111-.024.182v.438c0 .056.01.112.02.162.085.308.34.52.66.52.462 0 .737-.379.737-.939 0-.489-.25-.908-.721-.908zm33.32-.035c-.446 0-.641.413-.676.721h1.287c.005-.282-.115-.721-.61-.721zm-30.174 0c-.446 0-.641.413-.676.721h1.287c.005-.282-.116-.721-.611-.721zm37.985 0c-.447 0-.642.413-.677.721h1.287c.006-.282-.115-.721-.61-.721zm-4.702-9.001c.44 0 .755.093.891.164l-.147.537c-.173-.077-.412-.142-.717-.142-.745 0-1.283.47-1.283 1.357 0 .81.473 1.33 1.277 1.33.273 0 .555-.054.73-.136l.108.53c-.158.083-.506.17-.946.17-1.163 0-1.87-.738-1.87-1.86 0-1.216.837-1.95 1.957-1.95zm-47.78 0c.396 0 .69.088.88.186l-.163.542c-.13-.07-.386-.175-.728-.175-.424 0-.61.23-.61.444 0 .284.213.415.702.607.636.241.946.564.946 1.095 0 .591-.446 1.111-1.392 1.111-.385 0-.787-.114-.989-.235l.147-.558c.217.126.544.235.886.235.43 0 .669-.203.669-.503 0-.28-.185-.444-.653-.614-.603-.219-.99-.542-.99-1.073 0-.602.501-1.062 1.295-1.062zm25.444.06l1.19 3.69h-.717l-.331-1.045h-1.164l-.315 1.045h-.69l1.174-3.69h.853zm-16.111 0l1.19 3.69h-.717l-.332-1.045h-1.163l-.316 1.045h-.69l1.175-3.69h.853zm43.083 0l1.191 3.69h-.717l-.332-1.045h-1.164l-.315 1.045h-.69l1.174-3.69h.853zm-48.366-.027c.527 0 .885.088 1.13.296.201.17.315.427.315.739 0 .476-.32.799-.663.925v.016c.261.099.419.356.51.712.115.46.213.887.29 1.03h-.691c-.055-.11-.142-.411-.245-.871-.103-.482-.277-.635-.657-.646h-.337v1.516H7.3v-3.64c.25-.044.625-.077 1.012-.077zm35.62 0c.527 0 .885.088 1.13.296.201.17.316.427.316.739 0 .476-.321.799-.663.925v.016c.26.099.418.356.51.712.115.46.212.887.288 1.03h-.69c-.054-.11-.141-.411-.244-.871-.104-.482-.278-.635-.658-.646h-.337v1.516h-.663v-3.64c.25-.044.625-.077 1.01-.077zm4.164.027v3.69h-.669v-3.69h.669zm-7.257 0v.553h-1.462v.953h1.38v.547h-1.38v1.084h1.543v.553H38.71v-3.69h2.13zm-39.948 0v3.69H.224v-3.69h.668zm32.946 0l.479 1.484c.13.432.244.87.337 1.281h.016c.098-.4.223-.854.364-1.287l.506-1.478h.87l.211 3.69h-.652l-.07-1.505c-.022-.476-.05-1.051-.044-1.555h-.016c-.12.454-.272.953-.435 1.418l-.533 1.599h-.516l-.49-1.577c-.14-.47-.271-.975-.369-1.44h-.01c-.017.487-.039 1.073-.066 1.577l-.082 1.483h-.625l.245-3.69h.88zm-12.246 0v3.126h1.506v.564h-2.175v-3.69h.669zm-2.75 0v.553h-1.463v.953h1.38v.547h-1.38v1.084h1.544v.553H16.71v-3.69h2.131zm7.175 1.998v.466H24.63v-.466h1.387zM13.15 40.19h-.01c-.055.214-.11.47-.175.69l-.282.909h.94l-.288-.91c-.07-.224-.13-.475-.185-.69zm16.112 0h-.011c-.055.214-.109.47-.174.69l-.283.909h.94l-.288-.91c-.07-.224-.13-.475-.184-.69zm26.972 0h-.011c-.054.214-.109.47-.174.69l-.283.909h.94l-.287-.91c-.071-.224-.13-.475-.185-.69zm-12.236-.055c-.212 0-.348.017-.413.033v1.166h.397c.45 0 .734-.24.734-.608 0-.405-.283-.59-.718-.59zm-35.62 0c-.212 0-.348.017-.413.033v1.166h.396c.451 0 .734-.24.734-.608 0-.405-.283-.59-.717-.59zm-4.716-7.627v2.802h-.438v-2.802h.438zm36.42-1.014c.567 0 .852.306.852.914 0 .742-.146 1.288-.44 1.638-.188.225-.47.34-.841.34-.378 0-.66-.104-.852-.314-.177-.181-.281-.469-.31-.863l-.134-1.715h1.725zm12.316 0l.083 1.474h.232c.174 0 .287-.02.335-.057.08-.059.126-.187.134-.375l.044-1.042h.438l-.07 1.03c-.014.287-.09.485-.219.6-.116.104-.296.157-.54.157-.13 0-.243-.009-.34-.025l.038.713c.303.025.565.04.777.04.36 0 .61-.051.754-.153.158-.111.252-.321.28-.63l.15-1.732h.432l-.148 1.66c-.043.45-.17.769-.38.948-.213.184-.568.273-1.067.273-.527 0-.916-.022-1.172-.065l-.188-2.816h.427zm-25.51 0l.083 1.474h.232c.174 0 .286-.02.334-.057.083-.059.128-.187.135-.375l.044-1.041h.435l-.067 1.028c-.017.288-.09.486-.22.602-.114.103-.294.156-.537.156-.132 0-.246-.009-.342-.025l.035.714c.307.024.566.038.779.038.358 0 .61-.05.754-.152.157-.111.252-.321.28-.63l.15-1.731h.433l-.149 1.66c-.042.45-.17.768-.38.947-.212.184-.568.273-1.066.273-.527 0-.917-.022-1.172-.065l-.191-2.815h.43zm20.883 0c.378 0 .642.07.794.207.153.137.23.357.23.66v1.987h-.438v-1.965c0-.337-.17-.506-.513-.506h-.788v1.798c0 .248-.073.432-.218.552-.118.097-.27.148-.46.148-.12 0-.233-.024-.336-.071v-.345c.08.029.157.043.232.043.229 0 .344-.103.344-.312v-1.813h-.419v-.383h1.572zm2.404-.005c.443 0 .758.09.944.268.225.21.336.592.336 1.138 0 .983-.41 1.473-1.23 1.473-.385 0-.663-.01-.831-.032v-.377c.168.018.43.027.785.027.306 0 .517-.068.63-.203.131-.152.194-.449.194-.888 0-.407-.063-.687-.193-.836-.108-.126-.33-.187-.669-.187-.334 0-.585.01-.747.035v-.38c.128-.025.387-.038.781-.038zm-44.502.006l-.208 1.756c-.045.38-.151.658-.32.828-.179.183-.454.274-.822.274h-.206v-.367h.2c.231 0 .399-.05.503-.15.101-.1.17-.282.201-.544l.165-1.415H3.089v-.382h2.584zm5.915-.008c.655 0 .984.347.984 1.044v1.817h-1.34v-.37h.899v-1.422c0-.457-.211-.684-.635-.684-.325 0-.547.184-.662.552-.046.158-.105.439-.174.844l-.18 1.08h-.434l.192-1.061c.032-.192.05-.336.05-.433 0-.092-.01-.175-.025-.247-.066-.277-.19-.623-.372-1.034v-.078h.474c.096.219.172.494.232.82.005.015.008.024.015.027.01.004.018-.003.024-.015.068-.26.17-.462.307-.602.16-.161.375-.238.645-.238zm2.032.008c.243.334.602.822 1.074 1.463.158-.085.268-.339.33-.762l.104-.701h.434l-.115.701c-.048.303-.147.544-.298.72-.107.127-.213.208-.317.233.216.285.5.674.859 1.171v.028h-.472c-.575-.822-.963-1.356-1.17-1.6-.177.06-.302.326-.379.806l-.122.794h-.43l.15-.822c.1-.542.318-.866.65-.97l-.77-1.02v-.041h.472zM.666 32.769v1.578h-.44v-1.578h.44zm23.918-1.283c.466 0 .784.066.956.209.172.14.257.37.257.687v1.965h-.438V32.45c0-.222-.052-.375-.154-.46-.104-.083-.343-.124-.718-.124-.212 0-.425.013-.647.04v-.38c.18-.029.428-.04.744-.04zm-3.232.008c.243.334.6.822 1.072 1.463.159-.085.269-.339.331-.762l.105-.701h.432l-.114.701c-.047.303-.148.544-.299.72-.107.127-.212.208-.315.233.213.285.498.674.856 1.171v.028h-.47c-.574-.822-.965-1.354-1.17-1.6-.178.06-.302.326-.38.806l-.122.794h-.429l.15-.822c.1-.542.317-.866.648-.97l-.768-1.02v-.041h.473zm-2.807-.946v.946h1.783l-.211 1.792c-.045.363-.15.63-.31.798-.173.173-.429.263-.765.263h-.58v-.367h.552c.22 0 .38-.05.481-.145.1-.098.166-.275.198-.534l.159-1.425h-1.74v-1.328h.433zm-10.403.938c.467 0 .785.066.956.209.172.14.258.37.258.687v1.965h-.439V32.45c0-.222-.053-.375-.156-.46-.103-.083-.343-.124-.718-.124-.209 0-.425.013-.646.04v-.38c.18-.029.43-.04.745-.04zm34.973 0c.658 0 .985.346.985 1.044v1.817h-1.34v-.37h.9v-1.422c0-.457-.213-.684-.634-.684-.328 0-.55.184-.664.552-.047.158-.104.439-.174.844l-.181 1.08h-.435l.193-1.061c.033-.192.05-.336.05-.433 0-.092-.008-.175-.024-.247-.068-.277-.19-.623-.373-1.034v-.08h.475c.097.221.173.496.23.822.006.015.01.024.017.027.01.004.017-.003.022-.015.069-.26.172-.462.307-.602.161-.161.375-.238.646-.238zm12.798-.938v.945h1.783l-.211 1.793c-.046.363-.15.63-.31.798-.173.173-.429.263-.764.263h-.58v-.367h.551c.22 0 .381-.05.482-.145.1-.098.165-.275.198-.534l.159-1.425h-1.742v-1.328h.434zm-19.47.93c.495 0 .827.074 1 .224.171.15.258.385.258.705v1.94h-.439v-1.94c0-.24-.071-.396-.22-.47-.105-.05-.32-.077-.645-.077-.32 0-.52.008-.602.02v2.467h-.44v-2.815c.332-.037.696-.054 1.089-.054zM1.16 31.474c.443 0 .755.056.935.168.234.148.35.405.35.767v1.938h-.437v-1.912c0-.255-.075-.419-.224-.491-.109-.057-.34-.084-.691-.084-.393 0-.692.02-.9.056v-.384c.285-.04.605-.058.967-.058zm32.214.012c.467 0 .785.066.957.209.171.14.257.37.257.687v1.965h-.439V32.45c0-.222-.053-.375-.156-.46-.102-.083-.342-.124-.718-.124-.21 0-.425.013-.645.04v-.38c.182-.029.428-.04.744-.04zm6.521.39h-1.064l.081 1.363c.025.376.143.616.352.72.097.042.223.065.383.065.238 0 .418-.07.537-.204.097-.11.174-.302.232-.581.049-.24.071-.49.071-.748 0-.236-.05-.402-.153-.494-.09-.08-.236-.12-.439-.12zm-22.196.851v.365h-1.616v-.365H17.7zM6.793 31.494v1.49h-.438v-1.49h.438zm23.77 0v1.49h-.437v-1.49h.438zM0 18.824s3.6-3.186 12.235-1.752c1.058.148 10.3 2.214 11.357 2.363 4.437.624 7.779-.05 8.846-1.842l-.335 1.672c-1.068 1.794-4.963 2.486-9.398 1.86-1.058-.148-10.298-2.214-11.36-2.363-4.434-.62-9.6-1.132-11.345.061zM10.047 1.768c1-.002 2.162.092 3.51.316 1.058.149 10.302 2.216 11.358 2.362.2.028.394.05.589.073l-.48 1.737c-.33-.033-.66-.07-.995-.117-1.059-.147-10.302-2.215-11.36-2.364-4.434-.624-6.983-.396-8.729.792 0 0 .7-2.788 6.103-2.799zM22.12 16.753s3.02-3.362 11.609-1.822c1.048.162 10.233 2.34 11.284 2.506 4.411.674 7.848.064 8.937-1.723l-.455 1.649c-1.091 1.788-4.98 2.436-9.392 1.757-1.05-.16-10.23-2.342-11.287-2.503-4.407-.68-8.942-1.036-10.696.136zm.965-3.498s2.522-3.506 11.105-1.965c1.052.164 10.234 2.344 11.287 2.503 4.41.68 8.37.138 9.462-1.644l-.534 1.922c-1.089 1.784-5.427 2.087-9.838 1.41-1.052-.16-10.232-2.343-11.284-2.505-4.41-.679-8.44-.895-10.198.28zm-5.75-4.73l.434 1.432 1.61.352-1.157 1.176.453 1.528-1.612-.352-1.097 1.132-.48-1.433-1.613-.353 1.158-1.178-.455-1.527 1.614.353 1.144-1.13zM38.168.927c3.124.705 7.955 1.835 8.7 1.95 4.41.678 9.93.383 11.021-1.406l-.524 1.901C56.276 5.16 50.37 5.24 45.96 4.562c-.733-.11-5.414-1.204-8.541-1.911l-.483 1.744.238.053c3.074.69 8.44 1.947 9.23 2.067 4.41.68 9.474.074 10.566-1.713l-.575 2.069c-1.088 1.786-6.486 2.008-10.898 1.332-.775-.118-5.953-1.332-9.052-2.029l-.484 1.747c2.85.627 9.122 2.103 9.981 2.236 4.41.676 8.902.172 9.992-1.613l-.505 1.823c-1.09 1.786-5.985 2.152-10.395 1.475-1.057-.161-10.236-2.341-11.288-2.505-.379-.058-.75-.11-1.116-.16l.069.01-.068-.009c-3.923-.453-7.653-.064-8.773 1.47l-.087.13 1.251-4.521.481-1.737.445-1.609.016-.058.204-.738c.533-.492 1.065-.88 1.613-1.186l.046-.025C29.412.03 31.146-.134 33.478.09c.462.045.948.103 1.46.176.204.028.409.057.621.09.08.012.401.081.79.167.408.087.94.205 1.546.341l.017.004z"/>
</svg>
