<svg xmlns="http://www.w3.org/2000/svg" width="21" height="22" viewBox="0 0 21 22">
    <path fill="#00807C" d="M16.019 13.418c.268-.653 1.343-.653 1.611 0l3.077 7.252c.195.435-.024.943-.464 1.137-.122.048-.22.072-.342.072-.342 0-.66-.193-.806-.532l-.464-1.112h-3.614l-.464 1.112c-.195.435-.708.653-1.147.46-.44-.194-.66-.702-.464-1.137zm-13.21-2.853c.341-.314.927-.314 1.244 0l2.37 2.345c.341.338.341.894 0 1.233-.172.17-.392.266-.611.266-.22 0-.44-.097-.61-.266l-.88-.87v.507c0 2.563 2.1 4.666 4.713 4.666h1.099c.488 0 .903.387.903.87 0 .484-.39.87-.879.87H9.035c-3.565 0-6.471-2.876-6.471-6.406v-.507l-.88.87c-.341.338-.903.338-1.244 0-.342-.339-.342-.895 0-1.233zm14.015 5.415l-1.074 2.515h2.149l-1.075-2.515zM11.208 1.475c3.565 0 6.471 2.877 6.471 6.406v.097l.855-.87c.342-.339.903-.339 1.245 0 .342.338.342.894 0 1.233l-2.369 2.345c-.146.169-.366.266-.61.266-.22 0-.44-.097-.61-.266L13.82 8.34c-.34-.339-.34-.895 0-1.233.343-.339.904-.339 1.246 0l.88.87v-.073c0-2.586-2.125-4.69-4.738-4.69-.488 0-.879-.386-.879-.87 0-.483.39-.87.88-.87zM1.463 0c.105 0 .19.047.258.142l2.752 3.903.158-.021c.255-.048.473-.157.652-.328.215-.204.322-.458.322-.762v-1.14H4.66l-.062-.005c-.059-.01-.11-.037-.153-.08-.057-.057-.086-.128-.086-.213V.427l.006-.061c.01-.059.037-.11.08-.152.058-.057.13-.086.215-.086h2.05l.1.007c.13.02.242.076.337.171.12.119.18.264.18.435v2.122l-.008.224c-.037.514-.201.967-.494 1.357-.335.447-.798.765-1.39.955l1.533 2.179.032.05c.017.037.026.077.026.12 0 .105-.048.19-.144.257l-.903.641-.05.032c-.037.017-.077.025-.122.025-.115 0-.2-.047-.258-.142L2.394 4.102l-.086.072c-.108.101-.186.222-.236.363-.062.176-.093.425-.093.748v1.524h.931l.062.005c.06.01.11.038.153.08.058.057.086.128.086.214v1.068l-.005.062c-.01.058-.038.11-.08.152-.058.057-.13.085-.216.085H.875l-.1-.007c-.13-.019-.242-.076-.337-.17-.12-.12-.18-.264-.18-.435V5.342l.005-.247c.02-.48.1-.887.24-1.22.162-.39.434-.736.816-1.04l.115-.1-1.132-1.61-.032-.05C.253 1.039.244.999.244.955c0-.105.048-.19.144-.257L1.29.057l.05-.032C1.379.008 1.419 0 1.464 0z"/>
</svg>
