<svg xmlns="http://www.w3.org/2000/svg" width="59" height="50" viewBox="0 0 59 50">
    <g fill="#480A35" fill-rule="evenodd">
        <path d="M5.668 46.999v-4.646c0-1.766-1.174-2.323-2.617-2.323-.758 0-2.237.15-2.824.23-.086 0-.196.096-.196.218v.53c0 .122.074.23.172.23h2.64c.832 0 1.492.136 1.492.965V47c0 .095.061.163.147.163h1.04c.072 0 .146-.068.146-.163zm-4.132 0V43.18c0-.095-.074-.163-.148-.163H.435c-.073 0-.147.068-.147.163l-.085.829v2.989c0 .095.06.163.146.163h1.04c.073 0 .147-.068.147-.163zm10.062-6.073v-.625c0-.095-.074-.163-.16-.163H7.747v-1.82c0-.095-.073-.163-.147-.163H6.67c-.085 0-.146.068-.146.163v2.757c0 .082.06.164.146.164h3.51l-2.201 5.76c-.037.095.012.163.097.163h1.15c.073 0 .17-.068.195-.163l2.116-5.692c.049-.136.06-.232.06-.38zm2.066 3.138v-3.763c0-.081-.061-.163-.147-.163h-1.04c-.085 0-.146.082-.146.163v3.954c0 .095.073.162.147.162l1.04-.19c.085-.013.146-.068.146-.163zM20.339 47v-4.646c0-1.766-1.173-2.323-2.616-2.323-.758 0-2.237.15-2.825.23-.085 0-.195.096-.195.218v.53c0 .122.073.23.171.23h2.64c.833 0 1.492.136 1.492.965V47c0 .095.062.163.147.163h1.04c.073 0 .146-.068.146-.163zm-4.132 0V43.18c0-.095-.074-.163-.147-.163h-.954c-.073 0-.146.068-.146.163l-.086.829v2.989c0 .095.061.163.147.163h1.04c.072 0 .146-.068.146-.163zm10.747-3.478v-2.92c0-.313-.135-.463-.416-.463h-4.952c-.085 0-.146.082-.146.163v.774c0 .082.06.164.146.164h4.023v2.255c0 1.467-.55 2.758-1.357 2.73-.086 0-.123.055-.123.122v.816c0 .081.086.136.123.136 1.895.135 2.702-1.957 2.702-3.777zm-4.084-.34c0-.095-.061-.163-.147-.163h-.941c-.086 0-.147.068-.147.163l-.098.829v5.475c0 .095.074.163.147.163h1.04c.085 0 .146-.068.146-.163V43.18zM33.52 47v-.761c0-.095-.074-.163-.147-.163h-.575v-3.722c0-1.766-1.174-2.323-2.617-2.323-.758 0-1.65.15-2.237.23-.086 0-.196.096-.196.218v.53c0 .122.074.23.172.23h2.054c.831 0 1.491.136 1.491.965v3.872h-3.423c-.086 0-.147.068-.147.163v.76c0 .096.061.164.147.164h5.33c.074 0 .147-.068.147-.163zm8.447-6.073v-.625c0-.095-.073-.163-.158-.163h-3.693v-1.82c0-.095-.073-.163-.147-.163h-.929c-.085 0-.146.068-.146.163v2.757c0 .082.06.164.146.164h3.51l-2.202 5.76c-.036.095.013.163.098.163h1.15c.073 0 .17-.068.195-.163l2.115-5.692c.05-.136.062-.232.062-.38zm5.796.15V40.3c0-.081-.061-.163-.147-.163h-5.013c-.086 0-.147.082-.147.163v.774c0 .082.061.164.147.164h3.313c-.5.475-.611 1.304-.611 2.214V47c0 .095.061.163.147.163h1.039c.086 0 .147-.068.147-.163v-3.9c0-.99.085-1.63.318-1.86h.66c.086 0 .147-.082.147-.164zm4.303 5.923c-.684-2.296-1.063-4.415-1.125-6.698 0-.095-.085-.163-.17-.163h-2.165c-.073 0-.134.082-.122.163l.012.774c.012.082.098.164.171.164h1.052c.061 1.127.17 2.16.391 3.287-.098.68-.905 1.386-1.712 1.427-.097.013-.146.08-.146.176v.978c0 .082.049.163.122.163 1.162 0 1.663-.68 1.98-1.684.196.801.368 1.413.368 1.413.024.095.097.163.17.163h1.052c.073 0 .135-.082.122-.163zm6.53-.843v-3.803c0-1.766-1.174-2.323-2.617-2.323-.759 0-2.825.15-3.411.23-.086 0-.196.096-.196.218v.53c0 .122.073.23.17.23h.832l-.488 5.76c0 .096.073.164.146.164h1.027c.086 0 .135-.068.147-.163l.489-5.76h1.088c.82 0 1.48.135 1.48.964v3.872h-1.59c-.086 0-.147.068-.147.163v.76c0 .096.061.164.147.164h2.433c.208 0 .49-.707.49-1.006zM54.986 33.225H39.331l1.77-2.423H53.984l1.77 2.423h-.767zM43.398 3.559h8.29v2.423h-8.29V3.559zm0 3.405h8.29v2.424h-8.29V6.964zm-.654 6.813h9.597v2.424h-9.597v-2.424zm-1.259-3.406h12.116l-1.26 2.425h-9.597l-1.259-2.425zM41.867.156h2.2v1.146h.765V.156h2.328v1.146h.765V.156h2.328v1.146h.764V.156h2.2v2.423h-11.35V.156zm-3.443 17.026h2.742v1.084h1.402v-1.084h2.38v1.084h1.402v-1.084h2.38v1.084h1.406v-1.084h2.38v1.084h1.402v-1.084h2.742l-1.26 2.422h-6.838c0-.597-.455-1.083-1.02-1.083-.564 0-1.02.486-1.02 1.083h-6.838l-1.26-2.422zm10.138 3.404h6.297L53.6 23.009h-5.039v-2.423zm-8.337 0h6.297v2.423h-5.037l-1.26-2.423zM53.6 26.415h-5.04c-.039-.563-.48-1.007-1.02-1.007-.538 0-.98.444-1.017 1.007h-5.039v-2.423h12.116v2.423zm-5.039.981H53.6v2.424h-5.038v-2.424zm-7.077 0h5.037v2.424h-5.037v-2.424zm-4.674 9.235l1.77-2.424H56.5l1.773 2.424H36.811z"/>
        <path d="M15.942 17.455c-.021 2.583 1.018 4.853 2.112 7.036-8.91-4.743-13.473 7.14-4.744 10.557 5.488 2.149 13.881.014 19.673 5.153 2.758 2.446 1.869 4.07 1.869 4.07 1.061-.815.146-2.644-.827-3.741-5.057-5.705-13.921-4.145-18.579-5.69-10.033-3.326-4.686-16.158 3.732-8.486.419.382.652.902 1.356 1.51.22.188.84-.043.754-.305-.274-.836-1.465-1.742-1.713-2.029-.6-.69-1.935-3.358-2.225-4.323C13 6.689 31.72 8.509 29.055 22.096c-.35 1.785-.42 1.868-.118 1.936 2.919.665 3.74-11.87-5.491-13.549-3.22-.585-7.462 1.953-7.504 6.972"/>
        <path d="M33.463 36.937c2.072-.817 7.116-5.83 6.92-11.634-.225-6.682-8.666-9.376-9.752 1.194-4.792-3.87-11.139.963-3.376 6.485 2.08 1.48 3.613 2.16 4.722 2.72.65.328 1.417-.164.914-.444-.433-.241-3.616-1.886-5.427-3.473-6.796-5.961 1.465-9.103 3.543-1.519.17.623 1.292.302 1.692-.15.274-.311-1.868-8.491 1.944-10.006 1.161-.462 3.035.163 4.14 2.384 2.677 5.39-2.03 11.984-5.358 14.368l.038.075"/>
    </g>
</svg>
