<svg xmlns="http://www.w3.org/2000/svg" width="89" height="50" viewBox="0 0 89 50">
    <path fill="#480A35" fill-rule="evenodd" d="M19.12 23c.255 0 .382.15.382.45v3.761h3.128c3.58 0 5.37 1.762 5.37 5.284 0 1.99-.743 4.015-2.227 6.076-1.394 1.906-3.057 3.357-4.99 4.351-.08.052-.177.078-.29.078-.121 0-.213-.057-.274-.17l-.656-.98c-.061-.083-.092-.16-.092-.233 0-.062.102-.166.306-.31 3.671-2.394 5.507-5.269 5.507-8.625 0-2.373-1.18-3.56-3.54-3.56h-4.47c-.183 0-.274-.098-.274-.295V23.42c0-.28.137-.419.412-.419zm24.856 4c2.127 0 3.804.636 5.032 1.906C50.336 30.302 51 32.307 51 34.922c0 2.24-.56 4.089-1.677 5.547C47.995 42.156 46.093 43 43.616 43c-2.356 0-4.034-.375-5.032-1.125-.19-.146-.284-.307-.284-.484 0-.063.024-.115.074-.157l.944-1.125c.12-.145.234-.218.344-.218.08 0 .18.052.3.156.938.75 2.247 1.125 3.924 1.125 1.388 0 2.486-.529 3.295-1.586C47.99 38.529 48.394 37 48.394 35c0-4.083-1.613-6.125-4.838-6.125-1.148 0-1.947.151-2.396.453v2.907c0 .604.205 1.156.614 1.656.41.5.919.781 1.528.843.31.021.374.204.195.547l-.555 1.094c-.04.084-.234.115-.584.094-1.148-.084-2.05-.461-2.703-1.133-.654-.672-.981-1.555-.981-2.648v-2.204c0-.447-.05-.791-.15-1.03l-.464-.766c-.04-.063-.06-.126-.06-.188 0-.156.09-.276.27-.36 1.477-.76 3.38-1.14 5.706-1.14zM8.07 27c1.83 0 3.276.414 4.337 1.241C13.47 29.07 14 30.321 14 31.995v9.734c0 .353-.176.53-.528.53h-1.358c-.251 0-.407-.031-.467-.092-.06-.06-.091-.206-.091-.438v-9.552c0-2.25-1.247-3.376-3.741-3.376-1.107 0-2.138.147-3.093.44.15.514.226 1.452.226 2.815v6.085c0 1.231-.292 2.24-.875 3.027-.674.98-1.64 1.56-2.896 1.741-.29.047-.436.076-.44.087l.006.002-.063-.005c-.082-.015-.142-.051-.181-.11l-.031-.065-.377-.968C.03 41.688 0 41.618 0 41.638c0-.141.116-.232.347-.273 1.438-.313 2.157-1.18 2.157-2.603v-8.22c0-.434-.096-.817-.286-1.15-.04-.06-.277-.379-.71-.954-.06-.07-.09-.136-.09-.197 0-.161.096-.272.287-.333C3.515 27.303 5.637 27 8.07 27zm24.904 0c.331 0 .608.55.83 1.648.13.59.195 1.27.195 2.036v.389l-.09 4.228c-.03.466-.237.699-.619.699h-1.175c-.232 0-.368-.041-.408-.124-.04-.083-.06-.275-.06-.575l-.09-4.042c-.06-1.637-.226-2.72-.498-3.249-.04-.062-.06-.134-.06-.217 0-.176.115-.296.347-.358l1.25-.373c.192-.041.317-.062.378-.062zM89 19v5.136L63 35v-8.099L89 19zm-8.05-6l.05 5.818-.008.001c-.512.12-25.824 6.049-26.963 6.179L54 25v-8.14L80.95 13zm-49.554-1c1.245 0 2.184.354 2.817 1.063.525.59.787 1.36.787 2.312 0 .94-.322 1.86-.965 2.758-.566.79-1.307 1.455-2.222 1.995-.047.022-.096.033-.147.033-.062 0-.108-.027-.139-.081l-.286-.414c-.108-.157-.087-.287.062-.39.664-.465 1.207-1.005 1.629-1.622.473-.72.71-1.446.71-2.182 0-.752-.211-1.355-.633-1.809-.422-.454-1.032-.681-1.83-.681-.54 0-1.093.121-1.659.365.252.508.379 1.422.379 2.742v6.1c0 .151-.065.262-.193.332l-.68.382c-.113.065-.198.097-.254.097-.083 0-.124-.06-.124-.178V15.31c0-.54-.08-1.039-.239-1.493-.03-.113-.157-.414-.378-.9-.02-.033-.031-.065-.031-.098 0-.06.041-.11.124-.154.854-.443 1.944-.665 3.272-.665zM4.612 11c1.046 0 1.872.233 2.479.698.606.466.909 1.17.909 2.112v5.475c0 .199-.1.298-.302.298h-.776c-.143 0-.232-.017-.267-.051-.034-.034-.051-.117-.051-.247v-5.373c0-1.266-.713-1.899-2.138-1.899-.633 0-1.222.083-1.768.247.086.29.13.818.13 1.584v3.423c0 .692-.167 1.26-.5 1.703-.385.55-.937.877-1.656.979C.46 19.983.382 20 .44 20c-.092 0-.15-.034-.173-.102l-.215-.545c-.035-.09-.052-.13-.052-.12 0-.079.066-.13.198-.153.822-.175 1.233-.664 1.233-1.464v-4.624c0-.244-.055-.46-.164-.647-.023-.034-.158-.213-.405-.536-.034-.04-.052-.077-.052-.11 0-.091.055-.154.164-.188C2.01 11.171 3.221 11 4.612 11zm9.757 1c.118 0 .213.077.285.231.23.489.346.99.346 1.506 0 1.132-.618 2.149-1.854 3.052.682.945 1.195 1.602 1.539 1.968.18.186.269.356.269.51v.486c0 .165-.075.247-.223.247H9.538c-.148 0-.223-.053-.223-.16v-.669c0-.132.075-.199.223-.199h3.908c-2.374-2.842-3.83-4.959-4.369-6.35-.051-.139-.077-.213-.077-.223 0-.059.07-.11.208-.152l.692-.207c.062-.027.113-.04.154-.04.087 0 .156.056.208.167.764 1.6 1.571 2.938 2.423 4.016.692-.557 1.038-1.216 1.038-1.976 0-.51-.115-1.075-.346-1.697-.02-.053-.03-.096-.03-.127 0-.08.043-.13.13-.152l.754-.207c.051-.016.097-.024.138-.024zm3.824 0c.075 0 .146.045.215.135.395.475.592 1.14.592 1.996v5.592c0 .185-.11.277-.329.277h-.845c-.156 0-.253-.016-.29-.047-.038-.032-.057-.109-.057-.23V14.4c0-.818-.147-1.423-.441-1.814-.025-.032-.038-.063-.038-.095 0-.09.072-.156.216-.198l.76-.246c.094-.031.166-.047.217-.047zm5.354 0c1.172 0 1.967.346 2.387 1.038.327.522.49 1.394.49 2.614 0 .95-.054 1.667-.164 2.15-.11.483-.309.875-.595 1.176h1.12c.143 0 .215.072.215.214v.594c0 .143-.072.214-.215.214h-5.47c-.17 0-.254-.06-.254-.182v-.626c0-.142.085-.214.253-.214h3.031c.379 0 .614-.433.706-1.299.017-.174.027-.645.03-1.413v-.448c0-.966-.076-1.642-.23-2.028-.23-.565-.69-.847-1.38-.847-.717 0-1.33.185-1.842.554-.03.021-.066.032-.107.032-.098 0-.162-.032-.192-.095l-.3-.65c-.02-.058-.03-.097-.03-.119 0-.052.036-.1.107-.142.537-.349 1.35-.523 2.44-.523zM70 7v6.032L43 16V8.149L70 7z"/>
</svg>
