<svg xmlns="http://www.w3.org/2000/svg" width="19" height="20" viewBox="0 0 19 20">
    <path fill="#FFF" fill-rule="nonzero" d="M8.578.012A8.272 8.272 0 0 0 7.723.1C3.485.76.67 4.716 1.039 8.94c.157 1.81.861 2.889 1.482 3.785C3.298 13.845 4 14.764 4 17.24V20h9v-3h2c1.093 0 2-.907 2-2v-2.979l1.227-.517c.56-.236.82-1.089.498-1.596L16.947 7.12v-.002C16.49 2.932 12.821-.2 8.578.012zM8 2.08v5.191A2 2 0 0 0 7 9a2 2 0 0 0 2.518 1.932l1.486 1.486a1.5 1.5 0 1 0 1.414-1.414L10.93 9.516A2 2 0 0 0 11 9a2 2 0 0 0-1-1.73V2.08a5.951 5.951 0 0 1 4.959 5.256l.05.463.25.394 1.202 1.885-1.461.617V15h-4v3H6v-.76c0-2.912-1.058-4.533-1.834-5.654-.62-.896-1.012-1.4-1.135-2.818v-.002C2.75 5.528 4.845 2.589 8 2.08z"/>
</svg>
